<?xml version="1.0" standalone="no"?>
<!DOCTYPE svg PUBLIC "-//W3C//DTD SVG 20010904//EN"
 "http://www.w3.org/TR/2001/REC-SVG-20010904/DTD/svg10.dtd">
<svg version="1.0" xmlns="http://www.w3.org/2000/svg"
 width="1013.000000pt" height="675.000000pt" viewBox="0 0 1013.000000 675.000000"
 preserveAspectRatio="xMidYMid meet">

<g transform="translate(0.000000,675.000000) scale(0.100000,-0.100000)"
fill="#000000" stroke="none">
<path d="M0 5440 l0 -1310 40 0 c22 0 40 4 40 8 0 10 66 9 76 -1 11 -11 84 -8
84 3 0 6 18 10 40 10 23 0 40 -5 40 -11 0 -8 17 -10 49 -7 30 3 58 0 72 -8 27
-15 119 -19 119 -6 0 5 18 8 40 7 22 -1 40 2 40 7 0 4 7 8 15 8 21 0 19 -28
-2 -33 -10 -3 9 -5 43 -6 34 0 88 -3 120 -5 47 -3 51 -2 19 4 l-40 7 43 1 c30
2 42 6 42 17 0 12 16 15 80 15 79 0 80 0 80 -25 0 -22 -4 -25 -40 -25 -22 0
-40 -4 -40 -9 0 -4 -35 -13 -77 -18 -84 -11 -18 -9 95 3 59 7 62 6 62 -15 0
-18 6 -21 40 -21 22 0 40 -4 40 -10 0 -5 -18 -10 -40 -10 -22 0 -40 -4 -40
-10 0 -5 18 -10 40 -10 22 0 40 4 40 8 0 11 233 12 240 1 3 -4 40 -10 83 -14
67 -6 77 -5 77 9 0 12 10 16 40 16 22 0 40 5 40 10 0 6 33 10 80 10 47 0 80
-4 80 -10 0 -5 18 -10 40 -10 33 0 40 3 40 20 0 18 -7 20 -80 20 -64 0 -80 3
-80 15 0 12 -16 15 -80 15 -64 0 -80 3 -80 15 0 9 9 15 23 15 13 0 29 6 36 13
11 10 14 10 18 0 3 -10 46 -13 164 -13 l159 0 0 -80 0 -80 40 0 c38 0 40 2 40
30 0 28 2 30 38 30 21 0 42 -4 48 -9 19 -18 73 -30 77 -18 3 9 11 9 35 1 17
-7 34 -8 39 -4 11 11 56 -8 48 -20 -3 -5 3 -10 14 -10 12 0 21 -4 21 -9 0 -12
134 -29 279 -35 63 -3 117 -10 120 -15 10 -16 174 -18 186 -3 23 29 295 25
295 -4 0 -8 6 -14 14 -14 7 0 19 -7 26 -15 10 -13 7 -17 -21 -29 -19 -8 -52
-18 -74 -22 l-40 -8 35 -7 c31 -6 27 -7 -25 -10 -33 -1 -70 -2 -82 -1 -13 0
-23 -3 -23 -8 0 -8 85 -30 120 -30 23 0 34 -16 34 -50 1 -24 36 -44 36 -20 0
6 -5 8 -10 5 -6 -3 -10 -1 -10 4 0 14 17 14 26 0 3 -6 17 -8 29 -5 13 3 26 2
29 -3 11 -17 -6 -42 -28 -40 -45 3 -39 -4 9 -11 51 -7 67 -5 50 8 -6 4 -10 67
-10 144 0 132 1 136 18 120 11 -9 14 -18 8 -20 -12 -4 -15 -170 -5 -209 7 -26
34 -31 34 -7 0 12 4 14 13 7 6 -6 25 -13 40 -17 16 -4 27 -12 24 -19 -5 -17
-38 -21 -48 -5 -5 7 -9 8 -9 2 0 -6 11 -20 25 -32 24 -21 26 -21 32 -5 4 10
12 24 19 31 15 14 84 16 84 2 0 -5 21 -10 47 -10 53 0 96 -30 86 -59 -10 -26
-23 -30 -80 -24 -36 4 -53 2 -53 -6 0 -6 -7 -11 -15 -11 -8 0 -20 -9 -27 -20
-18 -28 -36 -25 -40 8 -4 23 -5 24 -12 9 -5 -11 -4 -29 2 -43 11 -23 16 -24
96 -24 47 0 97 5 113 11 41 16 216 2 209 -17 -9 -22 60 -28 184 -15 63 6 226
13 362 14 137 1 248 5 248 10 0 4 18 7 40 7 29 0 40 -4 40 -15 0 -11 11 -15
40 -15 29 0 40 4 40 15 0 12 16 15 84 15 47 0 88 5 91 10 3 6 19 10 36 10 18
0 29 5 29 14 0 9 32 17 120 26 88 9 120 17 120 26 0 8 11 14 24 14 13 0 26 6
28 12 6 16 179 36 321 37 64 1 107 5 107 11 0 6 33 10 80 10 l80 0 0 44 0 44
80 7 c44 4 80 11 80 17 0 6 33 8 80 6 44 -2 80 0 80 5 0 4 18 7 40 7 33 0 40
3 40 20 0 16 7 20 30 20 28 0 30 2 30 40 0 22 5 40 10 40 6 0 10 -7 10 -15 0
-11 11 -15 40 -15 29 0 40 4 40 15 0 11 11 15 40 15 l40 0 0 40 0 40 71 0 71
0 -7 40 -7 40 45 0 45 0 -4 40 c-5 43 6 51 32 25 9 -8 29 -15 45 -15 19 0 29
5 29 15 0 8 -6 15 -13 15 -8 0 -13 14 -14 38 -2 31 3 39 25 50 14 6 39 12 54
12 18 0 28 5 28 15 0 11 11 15 40 15 29 0 40 4 40 15 0 12 13 15 61 15 53 0
65 4 84 24 17 18 35 26 71 28 27 2 49 8 52 16 2 6 -3 12 -12 12 -24 0 -19 20
11 52 l27 28 -27 0 c-25 0 -27 3 -27 40 0 31 -4 40 -17 40 -9 0 -13 3 -10 7 4
3 -2 16 -13 28 -17 18 -29 21 -70 17 l-50 -4 0 56 0 56 39 0 c25 0 41 -5 45
-15 3 -9 19 -15 41 -15 19 0 35 -4 35 -10 0 -5 18 -10 40 -10 36 0 40 3 40 25
0 25 1 25 80 25 57 0 80 -4 80 -12 0 -10 22 -11 92 -6 51 3 107 7 123 8 18 1
23 4 13 7 -13 3 -18 15 -18 44 0 28 -4 39 -15 39 -11 0 -15 11 -15 40 l0 40
-50 0 c-38 0 -50 -4 -50 -15 0 -12 -16 -15 -80 -15 -64 0 -80 3 -80 15 0 11
11 15 40 15 22 0 40 5 40 10 0 6 -24 10 -52 10 -29 0 -83 3 -120 7 l-68 6 0
-32 0 -31 -120 0 c-100 0 -120 3 -120 15 0 12 -16 15 -80 15 -66 0 -80 3 -80
16 0 17 -22 14 -28 -4 -2 -7 3 -12 12 -12 12 0 16 -10 16 -40 l0 -40 40 0 c30
0 40 -4 40 -16 0 -14 -8 -16 -52 -10 -29 3 -83 6 -120 6 -66 0 -68 1 -68 25 0
23 -4 25 -43 25 -34 0 -49 6 -68 26 -20 22 -32 25 -79 24 -128 -4 -130 -3
-130 30 0 28 -2 30 -40 30 -22 0 -40 -4 -40 -10 0 -5 -5 -10 -12 -10 -9 0 -9
3 0 12 19 19 14 50 -14 79 -24 25 -32 27 -83 24 -40 -3 -48 -2 -26 4 l30 8
-27 13 c-26 12 -28 17 -28 77 0 35 4 63 10 63 6 0 10 -18 10 -39 0 -51 26 -71
92 -71 36 0 48 -4 48 -15 0 -12 20 -15 120 -15 73 0 120 -4 120 -10 0 -5 7
-10 15 -10 11 0 15 11 15 40 0 36 3 40 25 40 14 0 25 5 25 10 0 6 16 10 36 10
30 0 43 -7 71 -40 37 -42 53 -50 53 -25 0 12 16 15 80 15 64 0 80 3 80 15 0
11 11 15 40 15 22 0 40 5 40 10 0 6 47 10 120 10 100 0 120 3 120 15 0 11 11
15 35 15 22 0 38 6 41 15 4 10 20 15 45 15 39 0 39 0 39 -40 l0 -40 -40 0
c-29 0 -40 -4 -40 -15 0 -11 11 -15 40 -15 29 0 40 4 40 15 0 11 11 15 40 15
l40 0 0 -52 0 -53 80 3 c44 2 80 8 80 13 0 5 18 9 40 9 22 0 40 -4 40 -10 0
-5 18 -10 40 -10 22 0 40 5 40 10 0 6 18 10 40 10 l40 0 0 -50 0 -50 200 0
200 0 0 90 0 90 -80 0 -80 0 0 40 c0 30 4 40 16 40 8 0 22 7 30 15 9 9 34 15
60 15 31 0 46 5 51 16 5 13 29 15 176 13 122 -1 172 1 175 9 2 7 -3 12 -12 12
-9 0 -16 6 -16 13 0 9 12 11 40 9 32 -3 40 -1 40 12 0 14 30 16 279 16 l280 0
4 -27 c3 -20 4 -15 6 15 1 41 2 42 36 42 24 0 35 -5 35 -15 0 -12 16 -15 80
-15 64 0 80 3 80 15 0 11 11 15 40 15 l40 0 0 -40 0 -40 -40 0 c-29 0 -40 -4
-40 -15 0 -11 11 -15 40 -15 22 0 40 -4 40 -10 0 -6 37 -10 90 -10 71 0 92 -3
96 -15 4 -8 17 -15 30 -15 17 0 24 -6 24 -20 0 -17 7 -20 39 -20 35 0 39 -3
45 -30 5 -27 10 -30 41 -30 19 0 35 5 35 10 0 6 7 10 15 10 11 0 15 -11 15
-43 0 -33 6 -49 25 -67 21 -19 25 -21 25 -7 0 11 8 17 25 17 l25 0 0 890 0
890 -5065 0 -5065 0 0 -1310z m6000 -250 c0 -22 -4 -40 -10 -40 -5 0 -10 18
-10 40 0 22 5 40 10 40 6 0 10 -18 10 -40z m92 -38 c-7 -2 -12 -21 -12 -43 0
-21 -4 -39 -10 -39 -14 0 -12 68 3 84 6 8 16 11 22 8 5 -3 4 -7 -3 -10z m1988
-67 c0 -11 -11 -15 -40 -15 -29 0 -40 -4 -40 -15 0 -11 -11 -15 -40 -15 -29 0
-40 4 -40 15 0 11 11 15 40 15 29 0 40 4 40 15 0 11 11 15 40 15 29 0 40 -4
40 -15z m-337 -12 c-13 -2 -33 -2 -45 0 -13 2 -3 4 22 4 25 0 35 -2 23 -4z
m-1103 -333 c0 -5 -2 -10 -4 -10 -3 0 -8 5 -11 10 -3 6 -1 10 4 10 6 0 11 -4
11 -10z m-4547 -597 c59 -9 24 -23 -59 -23 -95 0 -194 11 -194 21 0 10 196 12
253 2z m1477 -103 c60 0 91 -13 75 -29 -15 -15 -91 -16 -160 -2 -84 17 -98 22
-89 31 15 13 47 16 84 8 19 -4 60 -8 90 -8z m-2130 -20 c0 -5 -18 -10 -40 -10
-22 0 -40 5 -40 10 0 6 18 10 40 10 22 0 40 -4 40 -10z m5120 -40 c0 -18 -3
-19 -21 -9 -17 9 -19 13 -8 20 22 14 29 11 29 -11z m-3149 -15 l34 -16 -35 5
c-19 3 -55 1 -79 -3 -25 -5 -54 -5 -65 -1 -22 8 -17 9 74 23 14 3 28 5 31 6 4
0 22 -6 40 -14z m-291 -205 c0 -5 -7 -10 -15 -10 -8 0 -15 5 -15 10 0 6 7 10
15 10 8 0 15 -4 15 -10z m590 -170 c0 -4 -7 -10 -15 -14 -10 -4 -15 1 -15 14
0 13 5 18 15 14 8 -4 15 -10 15 -14z"/>
<path d="M8400 5140 c0 -5 18 -10 40 -10 22 0 40 5 40 10 0 6 -18 10 -40 10
-22 0 -40 -4 -40 -10z"/>
<path d="M9740 5060 c0 -5 5 -10 10 -10 6 0 10 5 10 10 0 6 -4 10 -10 10 -5 0
-10 -4 -10 -10z"/>
<path d="M9840 5060 c0 -5 16 -10 35 -10 19 0 35 5 35 10 0 6 -16 10 -35 10
-19 0 -35 -4 -35 -10z"/>
<path d="M7360 4525 c0 -11 11 -15 40 -15 29 0 40 4 40 15 0 11 -11 15 -40 15
-29 0 -40 -4 -40 -15z"/>
<path d="M6978 4193 c12 -2 32 -2 45 0 12 2 2 4 -23 4 -25 0 -35 -2 -22 -4z"/>
<path d="M6880 4014 c0 -17 22 -14 28 4 2 7 -3 12 -12 12 -9 0 -16 -7 -16 -16z"/>
<path d="M1520 3955 c0 -11 11 -15 40 -15 29 0 40 4 40 15 0 11 -11 15 -40 15
-29 0 -40 -4 -40 -15z"/>
<path d="M1698 3943 c12 -2 32 -2 45 0 12 2 2 4 -23 4 -25 0 -35 -2 -22 -4z"/>
<path d="M1760 3840 c0 -5 7 -10 16 -10 8 0 12 5 9 10 -3 6 -10 10 -16 10 -5
0 -9 -4 -9 -10z"/>
<path d="M2769 3775 c-3 -2 -22 -5 -43 -7 -21 -1 -41 -9 -46 -18 -7 -11 -9
-12 -10 -1 0 10 -15 11 -72 5 -40 -4 -81 -7 -91 -6 -21 1 -33 -23 -20 -41 5
-6 10 -23 10 -37 1 -14 -1 -19 -4 -12 -3 6 -9 12 -14 12 -6 0 -8 -4 -4 -9 6
-11 -33 -19 -120 -25 -81 -5 -92 -11 -97 -53 -3 -28 0 -37 14 -41 10 -2 15 -8
12 -13 -3 -5 -9 -7 -14 -4 -15 9 -21 -13 -14 -50 3 -20 12 -35 20 -35 8 0 14
-4 14 -10 0 -5 -9 -10 -20 -10 -17 0 -20 -7 -20 -40 0 -33 3 -40 20 -40 11 0
20 -4 20 -9 0 -5 -9 -13 -20 -16 -25 -8 -30 -75 -5 -75 8 0 15 -7 15 -15 0 -8
-7 -15 -15 -15 -8 0 -15 -6 -15 -12 0 -7 -3 -23 -6 -34 -4 -16 0 -23 15 -27
27 -7 27 -23 1 -30 -15 -4 -20 -14 -20 -41 0 -25 4 -36 15 -36 19 0 19 -10 0
-24 -8 -6 -17 -25 -21 -42 -5 -26 -3 -32 16 -37 23 -6 19 -27 -5 -27 -9 0 -12
-6 -9 -15 5 -13 -9 -15 -96 -15 -89 0 -101 -2 -90 -15 6 -8 9 -19 5 -24 -3 -7
0 -8 9 -5 21 8 20 -16 -1 -31 -14 -10 -10 -13 30 -19 26 -4 68 -4 93 0 36 5
46 4 42 -6 -3 -11 -44 -13 -189 -11 -185 2 -229 6 -229 21 0 15 -31 40 -48 39
-11 0 -12 -2 -4 -6 6 -2 12 -9 12 -15 0 -6 -7 -7 -16 -4 -12 4 -15 2 -10 -9 7
-18 0 -19 -18 -3 -7 7 -11 20 -9 28 3 9 -3 23 -12 30 -14 12 -18 12 -26 -1 -5
-8 -7 -20 -4 -26 6 -16 -26 -17 -59 -2 -15 7 -27 22 -29 38 -4 26 -4 26 -6 -3
-1 -21 -5 -27 -17 -22 -9 3 -20 6 -25 6 -5 0 -9 8 -9 18 -1 16 -1 16 -14 0 -8
-11 -26 -18 -45 -18 -18 0 -31 -5 -32 -12 0 -7 -5 -2 -10 11 -8 21 -13 23 -57
17 -83 -11 -87 -11 -85 0 1 7 -11 10 -35 7 -20 -2 -44 -4 -52 -4 -134 3 -252
-2 -265 -11 -21 -13 -122 -13 -138 0 -8 7 -39 15 -68 18 -29 3 -59 10 -66 15
-7 6 -18 7 -25 2 -7 -4 -51 -8 -98 -9 -47 -1 -105 -4 -129 -9 -32 -5 -46 -4
-53 6 -7 11 -11 11 -15 2 -6 -16 -43 -17 -43 -2 0 8 -10 9 -32 4 -18 -5 -69
-9 -113 -10 -44 -1 -97 -3 -118 -3 l-37 -2 1 -94 1 -94 29 8 c16 5 29 5 29 1
0 -5 -13 -11 -30 -14 -28 -6 -30 -10 -30 -51 0 -26 5 -46 13 -49 9 -4 9 -6 0
-6 -10 -1 -13 -46 -13 -191 l0 -190 28 0 c15 0 34 -5 42 -10 11 -7 4 -10 -27
-10 -39 0 -43 -2 -43 -26 0 -14 4 -23 10 -19 6 3 10 1 10 -4 0 -6 -4 -11 -10
-11 -20 0 -9 -26 18 -42 17 -10 44 -15 75 -13 26 2 47 -1 47 -7 0 -5 -24 -8
-57 -7 -45 2 -59 0 -61 -12 -3 -15 31 -30 93 -43 18 -3 17 -4 -2 -5 -16 -1
-23 -7 -23 -21 0 -30 14 -32 135 -20 60 5 112 7 116 2 4 -4 2 -123 -4 -265
l-10 -258 -35 -15 c-40 -16 -55 -12 -22 6 18 10 20 14 9 21 -12 8 -12 11 1 19
12 8 11 10 -7 10 -13 0 -23 -4 -23 -10 0 -5 -11 -10 -25 -10 -14 0 -25 4 -25
10 0 6 -22 8 -52 5 -39 -3 -47 -1 -30 5 30 13 28 16 -13 17 -24 1 -35 -3 -35
-13 0 -8 5 -14 10 -14 6 0 10 -4 10 -10 0 -6 -9 -6 -25 0 -14 5 -26 7 -26 5
-1 -3 -2 -9 -3 -14 -2 -19 -16 -24 -31 -11 -13 11 -15 -35 -15 -431 0 -290 4
-439 10 -429 8 13 10 13 10 -2 0 -9 -4 -20 -10 -23 -6 -4 -10 -102 -10 -261
l0 -254 1933 0 1932 0 342 172 c189 95 343 179 343 186 0 6 5 12 10 12 7 0 9
-58 7 -169 -2 -94 -1 -174 2 -179 11 -16 58 -22 91 -11 23 9 34 9 39 1 9 -14
431 -16 431 -2 0 6 -7 10 -15 10 -30 0 -14 16 33 33 26 10 50 16 54 15 4 -2
14 6 22 17 14 19 15 16 17 -35 l1 -55 9 40 c6 22 8 47 6 56 -3 11 9 21 41 32
25 10 47 15 50 13 2 -3 -7 -8 -22 -12 -22 -5 -26 -12 -26 -41 0 -32 2 -35 24
-29 15 4 26 1 29 -7 4 -7 8 -3 12 10 4 12 17 23 29 25 29 4 37 68 9 69 -16 0
-16 1 2 8 50 20 71 -19 41 -77 -7 -15 -17 -38 -21 -52 -6 -20 -5 -23 6 -13 18
18 30 16 23 -2 -5 -13 258 -15 2335 -15 l2341 0 0 1354 0 1355 -27 4 -28 4 28
2 c26 1 27 3 27 61 l0 60 -31 0 c-18 0 -28 4 -24 10 3 6 18 7 32 4 19 -5 24
-3 21 7 -6 18 -108 26 -108 8 0 -7 10 -9 24 -7 17 4 23 1 19 -9 -12 -30 -53
-4 -53 34 0 20 3 21 26 13 32 -13 37 -12 29 0 -4 7 3 7 20 0 36 -14 45 -13 45
5 0 15 -37 20 -97 15 -14 -1 -23 4 -23 12 0 14 43 16 93 3 21 -6 27 -4 27 9 0
16 -35 21 -97 16 -14 -1 -23 4 -23 13 0 10 8 13 25 9 18 -3 25 0 25 12 0 12
-6 15 -24 10 -21 -5 -23 -2 -29 47 -4 29 -5 54 -4 55 1 1 25 -2 53 -5 54 -7
74 -5 74 10 0 5 -18 9 -40 9 -26 0 -40 5 -40 13 0 7 9 13 20 13 11 0 20 -3 20
-7 0 -4 9 -5 20 -2 11 3 20 9 20 13 0 11 -86 17 -108 8 -16 -6 -16 -7 1 -7 24
-1 22 -31 -3 -31 -18 0 -20 7 -20 55 0 54 0 55 -29 55 -17 0 -33 4 -36 10 -12
19 -42 10 -54 -16 -6 -15 -14 -24 -17 -21 -3 2 -7 42 -9 88 -4 75 -6 84 -25
87 -11 2 -21 -1 -21 -7 -1 -6 -2 -16 -3 -23 0 -6 -15 -12 -33 -13 -18 -1 -30
2 -27 7 3 4 -15 8 -40 8 -25 0 -48 5 -51 11 -11 17 -34 -23 -30 -51 2 -14 6
-43 9 -65 l5 -40 -44 -3 c-33 -2 -45 1 -45 11 0 18 -142 35 -148 18 -2 -6 -12
-11 -23 -11 -17 0 -19 -10 -21 -142 l-3 -142 -45 -1 c-52 -1 -75 -11 -63 -29
4 -7 1 -5 -7 4 -16 17 -50 23 -50 9 0 -5 -6 -6 -14 -3 -8 3 -16 -4 -20 -20 -4
-17 -13 -26 -26 -26 -21 0 -28 -26 -9 -32 6 -2 -14 -4 -45 -5 -49 -1 -56 1
-56 18 0 20 -5 21 -95 21 -36 0 -37 1 -7 5 18 2 45 11 60 19 27 14 27 14 5 20
-13 4 -23 13 -23 21 0 13 -3 13 -15 3 -10 -9 -15 -9 -15 -1 0 12 -38 15 -64 5
-9 -3 -16 -12 -16 -19 0 -15 -31 -25 -77 -25 -29 0 -33 3 -33 25 0 32 -18 33
-26 1 -4 -18 -15 -26 -40 -30 -19 -4 -34 -12 -34 -18 0 -6 -7 -5 -17 3 -13 11
-17 11 -20 2 -3 -8 -21 -13 -44 -13 -37 0 -51 12 -29 25 15 9 2 25 -22 25 -17
0 -19 -4 -14 -25 l7 -26 -108 3 -108 3 -5 85 c-6 102 -21 86 -18 -19 l3 -74
-35 -4 c-19 -2 -40 -11 -46 -19 -13 -16 -79 -20 -69 -4 4 6 13 9 20 8 16 -3
15 -7 15 71 0 59 0 60 -27 57 -28 -3 -28 -4 -27 -75 l2 -71 -30 0 c-28 0 -29
-2 -23 -32 5 -25 4 -29 -4 -18 -6 8 -11 23 -11 33 0 10 -8 17 -19 17 -11 0
-22 6 -24 13 -4 9 -8 8 -16 -3 -5 -8 -12 -12 -15 -9 -6 5 -14 72 -15 117 -1
14 -5 21 -12 16 -6 -4 -8 -20 -5 -39 5 -24 2 -34 -9 -38 -8 -4 -12 -13 -9 -22
3 -8 1 -15 -5 -15 -6 0 -10 -6 -8 -12 1 -8 -11 -14 -30 -16 -27 -3 -31 0 -26
17 8 32 -27 70 -65 71 -23 0 -40 7 -52 22 -18 23 -18 23 -40 3 -16 -15 -23
-16 -29 -6 -7 10 -9 10 -14 -2 -3 -9 -17 -13 -44 -11 -21 2 -44 3 -51 3 -7 1
-10 6 -7 11 4 6 -5 10 -20 10 -15 0 -24 -4 -20 -10 3 -5 1 -10 -4 -10 -6 0
-11 4 -11 10 0 5 -3 9 -7 9 -28 -5 -53 3 -53 16 0 11 -11 15 -40 15 -36 0 -40
-2 -40 -25 0 -22 -4 -25 -40 -25 -42 0 -50 -9 -25 -30 8 -7 15 -25 15 -41 0
-29 -1 -29 -60 -29 l-60 0 0 -80 0 -79 -32 6 c-18 3 -34 7 -36 8 -1 1 -3 29
-5 61 -2 53 -10 73 -28 74 -4 0 -6 -26 -6 -58 0 -32 -5 -67 -11 -77 -10 -17
-12 -11 -10 36 1 30 -2 61 -7 68 -4 8 -3 16 4 20 17 11 2 41 -20 41 -13 0 -19
7 -19 23 0 21 -5 24 -44 25 -25 1 -48 -2 -51 -8 -3 -5 -15 -10 -26 -10 -10 0
-19 -7 -19 -15 0 -9 -10 -15 -25 -16 -14 -1 -31 -2 -37 -3 -7 -1 -19 2 -25 7
-10 7 -13 -9 -13 -75 l0 -85 -52 -5 c-44 -5 -77 -4 -170 2 -5 0 -8 7 -8 15 0
8 -9 15 -20 15 -21 0 -28 -19 -7 -21 6 -1 -1 -4 -18 -8 -27 -6 -30 -9 -27 -41
2 -19 -1 -46 -7 -60 -8 -21 -10 -14 -10 38 -1 48 -4 62 -16 62 -8 0 -15 -6
-15 -14 0 -8 -4 -17 -8 -20 -4 -2 -8 6 -8 20 0 13 4 24 8 24 4 0 8 5 8 10 0 6
-7 10 -15 10 -8 0 -15 -4 -15 -10 0 -5 -9 -10 -20 -10 -14 0 -18 5 -13 17 4
11 3 14 -5 9 -9 -5 -12 8 -12 48 0 30 -3 57 -7 59 -19 11 -103 18 -103 8 0 -5
19 -12 43 -14 23 -3 -31 -4 -120 -3 -157 1 -163 0 -161 -19 0 -11 0 -42 0 -69
-2 -45 -4 -48 -24 -43 -13 3 -46 9 -75 13 l-52 6 3 -96 c4 -102 -11 -135 -17
-38 l-3 57 -2 -57 c-1 -32 -6 -58 -12 -58 -9 0 -14 143 -10 308 1 34 -2 62 -7
62 -4 1 -66 3 -136 7 l-128 5 3 -191 c2 -105 0 -192 -4 -194 -4 -1 -5 -12 -2
-24 7 -24 23 -28 98 -23 26 1 36 -2 32 -9 -4 -6 -25 -11 -47 -11 -32 0 -41 -4
-49 -22 l-9 -23 0 23 c-1 26 -7 28 -28 7 -16 -17 -35 -16 -34 0 1 6 6 10 13
10 6 0 13 6 16 13 2 7 -6 12 -22 12 -26 0 -26 0 -26 87 0 105 -12 103 -15 -2
-1 -41 -5 -78 -8 -82 -4 -3 -7 113 -7 260 l0 266 -72 -26 c-40 -13 -79 -29
-85 -35 -10 -8 -13 -67 -13 -233 0 -123 -3 -232 -7 -242 -5 -10 -10 54 -13
142 l-6 160 -2 -162 c-2 -140 -4 -162 -17 -157 -8 4 -15 2 -15 -2 0 -5 -18 -9
-40 -9 -22 0 -40 3 -40 8 0 4 -19 7 -43 7 -43 0 -44 0 -38 33 4 30 5 31 11 7
4 -19 13 -25 38 -26 l32 -2 1 57 c1 31 4 47 6 36 3 -11 10 -23 17 -27 8 -6 7
-8 -1 -8 -16 0 -17 -46 -2 -55 6 -4 13 -4 17 -1 3 4 7 107 9 230 l2 224 -74 0
c-72 0 -74 -1 -78 -26 l-4 -27 -2 28 c-1 30 -27 38 -34 10 -2 -10 -3 -8 -2 5
2 21 -1 22 -60 22 l-63 0 -1 -197 c-1 -115 -5 -201 -11 -207 -7 -7 -10 -1 -10
17 0 15 -4 27 -10 27 -5 0 -10 -11 -10 -25 0 -14 -5 -25 -10 -25 -7 0 -8 86
-4 255 4 151 3 255 -2 254 -5 0 -38 -15 -74 -32 l-65 -33 -5 -128 -5 -129 -30
-2 c-16 0 -52 5 -80 12 -27 7 -63 13 -79 13 -16 0 -35 8 -43 18 -8 9 -12 11
-8 5 4 -9 -2 -13 -19 -13 -13 0 -27 6 -29 13 -3 7 -6 5 -6 -5 -1 -11 -6 -15
-15 -12 -8 3 -33 0 -56 -6 -34 -9 -45 -9 -51 2 -7 10 -9 8 -10 -7 0 -20 -1
-20 -8 0 -7 18 -8 18 -18 2 -8 -16 -18 -17 -76 -11 -37 4 -67 11 -67 15 0 5
-4 9 -10 9 -5 0 -10 -7 -10 -15 0 -8 -4 -15 -10 -15 -5 0 -10 4 -10 9 0 5 -8
8 -17 6 -10 -2 -40 -6 -68 -9 -45 -5 -48 -4 -31 9 10 8 23 12 27 9 5 -3 9 3 9
13 0 15 2 16 10 3 8 -12 10 -12 10 -1 0 11 3 11 15 1 10 -9 15 -9 15 -1 0 6 8
11 18 10 10 0 12 -3 5 -6 -21 -8 -15 -22 7 -16 11 3 20 9 20 15 0 5 7 5 18 0
9 -5 28 -6 42 -1 16 4 19 7 8 8 -36 2 -17 21 21 21 22 0 41 5 43 10 2 6 95 13
236 17 128 3 235 10 238 15 3 4 -14 9 -38 10 l-43 1 45 6 c43 6 40 7 -37 15
-70 7 -83 11 -83 26 0 21 14 27 53 25 15 -1 27 2 27 7 0 12 -238 10 -242 -3
-4 -13 -251 -19 -383 -9 -54 4 -93 2 -96 -3 -4 -6 -23 -7 -42 -4 -21 3 -42 0
-53 -7 -16 -12 -15 -13 5 -19 12 -3 35 -3 51 -1 16 3 42 -2 59 -10 31 -16 136
-22 144 -8 2 4 2 1 0 -6 -1 -8 -3 -23 -3 -34 0 -19 -4 -20 -55 -15 -50 5 -70
-3 -45 -18 16 -10 11 -25 -7 -23 -10 1 -29 0 -43 -1 -20 -1 -22 -3 -10 -11 9
-6 18 -6 24 0 13 13 26 13 26 0 0 -5 -7 -10 -16 -10 -9 0 -12 -5 -8 -12 5 -8
2 -9 -9 -5 -17 6 -177 21 -207 19 -8 0 -37 -7 -65 -15 l-50 -14 -3 -67 c-4
-81 -21 -88 -24 -8 -1 49 -2 51 -5 15 -4 -45 -8 -49 -33 -33 -9 6 -17 5 -22
-3 -7 -10 -14 100 -8 128 1 6 -4 4 -11 -2 -7 -7 -28 -13 -46 -13 -31 0 -33 2
-33 35 0 24 -5 35 -15 35 -8 0 -15 7 -15 15 0 8 6 14 13 12 7 -1 13 12 15 36
2 28 0 37 -12 37 -9 0 -16 7 -16 15 0 8 7 15 15 15 10 0 15 11 15 35 0 24 -5
35 -15 35 -8 0 -15 7 -15 15 0 8 7 15 15 15 11 0 15 11 15 40 0 29 -4 40 -15
40 -21 0 -19 17 3 22 20 6 23 69 4 76 -17 5 -15 32 2 32 20 0 17 58 -3 70 -14
9 -14 11 2 20 20 13 24 76 5 83 -10 4 -10 8 0 15 11 7 10 11 -4 16 -9 3 -18 5
-19 4 -3 -3 -12 -237 -20 -538 -3 -107 -7 -265 -10 -350 -2 -85 -7 -316 -11
-512 -6 -301 -4 -358 7 -358 8 0 30 4 49 9 20 4 44 4 55 0 16 -6 15 -8 -10 -8
-17 -1 -36 -6 -43 -13 -12 -12 -106 -30 -164 -31 -21 -1 -38 -5 -38 -9 0 -4
17 -8 38 -8 48 0 58 -9 32 -27 -25 -18 -244 -23 -260 -7 -7 7 -2 18 17 36 24
21 40 26 109 31 55 4 85 2 92 -5 9 -9 12 -8 12 5 0 10 8 17 20 17 19 0 20 7
21 113 1 61 3 157 4 212 2 55 6 222 9 370 4 149 9 329 11 400 17 507 17 675 4
679 -8 3 -40 7 -71 11 -55 6 -57 7 -60 38 -2 24 -8 32 -23 32 -11 0 -25 3 -31
7 -16 11 -24 -1 -24 -34 l0 -29 -57 6 c-32 3 -68 8 -80 11 -20 4 -23 0 -23
-26 0 -24 4 -30 23 -30 12 0 29 -5 37 -10 11 -7 5 -10 -22 -10 l-38 0 0 -45
c0 -40 3 -45 23 -45 34 -1 101 -11 107 -17 3 -3 -25 -3 -62 -1 l-68 4 0 -48 0
-48 53 0 c28 0 59 -5 67 -11 11 -7 -4 -9 -55 -7 l-70 3 -2 -40 c-3 -47 7 -55
69 -55 26 0 49 -4 53 -9 3 -6 -20 -8 -60 -4 l-65 6 0 -46 c0 -52 7 -57 82 -57
28 0 48 -3 44 -7 -4 -5 -34 -6 -67 -5 l-59 4 0 -45 0 -45 63 -10 62 -9 -67 -2
-66 -1 0 -45 0 -45 46 -1 c26 -1 52 -1 59 0 6 1 15 -3 18 -10 5 -7 -9 -9 -46
-6 -73 6 -79 2 -79 -49 0 -43 1 -44 32 -44 17 0 28 -3 24 -7 -4 -4 -19 -7 -33
-8 -25 0 -27 -3 -28 -47 l-2 -48 71 -2 71 -2 -70 -5 -70 -6 -1 -47 -2 -47 67
-4 66 -3 -67 -2 -68 -2 0 -34 c0 -30 3 -34 24 -32 14 2 30 -1 38 -5 8 -6 0 -9
-24 -9 -66 0 -41 -19 30 -23 l67 -3 -66 -2 -67 -2 -4 -46 c-4 -55 1 -58 78
-52 30 3 51 1 47 -3 -4 -4 -35 -9 -68 -11 l-60 -3 -1 -49 -1 -48 64 5 c35 2
60 1 57 -4 -3 -5 -32 -9 -65 -9 l-59 0 0 -49 0 -50 38 -4 37 -4 -37 -1 -38 -2
0 -50 c0 -49 0 -50 33 -51 l32 -2 -35 -6 c-34 -6 -35 -8 -38 -53 l-3 -48 38
-1 38 -2 -35 -6 c-29 -5 -36 -11 -38 -33 -3 -25 0 -28 25 -29 l28 0 -25 -12
c-35 -16 -36 -17 -20 -27 10 -7 11 -10 3 -10 -7 0 -13 -6 -13 -14 0 -7 -8 -16
-17 -19 -10 -2 -26 -8 -37 -12 -15 -7 -17 -4 -13 11 3 10 8 145 12 299 3 154
8 330 10 390 2 61 7 232 11 380 3 149 9 353 13 455 4 102 7 219 7 260 l-1 75
-30 5 c-16 3 -29 9 -27 13 1 4 2 21 2 38 0 25 3 29 19 24 10 -3 23 1 30 9 9
11 6 16 -19 24 -24 9 -30 17 -30 40 0 16 7 35 15 42 8 7 15 19 15 28 0 12 9
13 53 8 28 -4 62 -10 75 -13 12 -3 22 -1 22 5 0 5 -36 15 -81 22 -59 9 -79 16
-75 26 5 13 -7 28 -15 19z m-72 -67 c-3 -8 -6 -5 -6 6 -1 11 2 17 5 13 3 -3 4
-12 1 -19z m313 -308 c12 -8 9 -10 -12 -10 -15 0 -30 5 -33 10 -8 13 25 13 45
0z m200 -22 c10 -6 2 -8 -25 -4 -22 3 -52 6 -67 6 -16 0 -28 4 -28 9 0 10 100
2 120 -11z m-35 -97 l40 -9 -45 0 c-25 0 -56 4 -70 8 -24 8 -24 8 5 8 17 1 48
-3 70 -7z m-55 -55 c0 -3 -4 -8 -10 -11 -5 -3 -10 -1 -10 4 0 6 5 11 10 11 6
0 10 -2 10 -4z m89 -52 c11 -10 -9 -12 -67 -7 -34 3 -62 9 -62 13 0 7 121 1
129 -6z m6376 -4 c-3 -5 -13 -10 -21 -10 -8 0 -14 5 -14 10 0 6 9 10 21 10 11
0 17 -4 14 -10z m-6382 -107 c-7 -2 -19 -2 -25 0 -7 3 -2 5 12 5 14 0 19 -2
13 -5z m-200 -60 c-7 -2 -21 -2 -30 0 -10 3 -4 5 12 5 17 0 24 -2 18 -5z m207
-3 c0 -5 -8 -10 -17 -10 -15 0 -16 2 -3 10 19 12 20 12 20 0z m-10 -38 c0 -5
-13 -7 -30 -4 -16 2 -30 6 -30 8 0 2 14 4 30 4 17 0 30 -4 30 -8z m4935 -32
c0 -13 -6 -25 -12 -27 -9 -3 -13 6 -13 27 0 21 4 30 13 28 6 -3 12 -15 12 -28z
m-5142 -37 c-7 -2 -19 -2 -25 0 -7 3 -2 5 12 5 14 0 19 -2 13 -5z m1944 -25
c-3 -7 -5 -2 -5 12 0 14 2 19 5 13 2 -7 2 -19 0 -25z m-1737 -14 c0 -2 -9 -4
-20 -4 -11 0 -20 4 -20 9 0 5 9 7 20 4 11 -3 20 -7 20 -9z m1700 -13 c0 -6 -4
-12 -8 -15 -5 -3 -9 1 -9 9 0 8 4 15 9 15 4 0 8 -4 8 -9z m40 -1 c0 -5 -2 -10
-4 -10 -3 0 -8 5 -11 10 -3 6 -1 10 4 10 6 0 11 -4 11 -10z m2830 -10 c0 -6
-27 -10 -60 -10 -68 0 -84 -19 -17 -21 23 -1 53 -5 67 -9 18 -6 7 -8 -42 -9
-53 -1 -68 -4 -68 -16 0 -12 14 -15 67 -15 48 0 64 -3 56 -11 -7 -7 -34 -8
-89 -1 -44 5 -103 6 -131 2 -38 -4 -53 -3 -53 5 0 8 16 12 42 11 23 -1 43 4
45 10 3 10 -62 20 -191 28 -5 1 -11 7 -14 15 -3 10 0 12 14 7 11 -5 59 -11
108 -14 73 -4 88 -2 84 9 -3 10 -29 16 -84 20 -58 4 -33 6 94 7 109 1 172 -2
172 -8z m-3547 -7 c-13 -2 -33 -2 -45 0 -13 2 -3 4 22 4 25 0 35 -2 23 -4z
m-1323 -13 c0 -5 -2 -10 -4 -10 -3 0 -8 5 -11 10 -3 6 -1 10 4 10 6 0 11 -4
11 -10z m2867 4 c-3 -3 -12 -4 -19 -1 -8 3 -5 6 6 6 11 1 17 -2 13 -5z m4338
-4 c3 -5 -3 -10 -14 -10 -12 0 -21 5 -21 10 0 6 6 10 14 10 8 0 18 -4 21 -10z
m-5212 -20 c3 -11 1 -20 -4 -20 -5 0 -9 9 -9 20 0 11 2 20 4 20 2 0 6 -9 9
-20z m127 -20 c0 -5 -2 -10 -4 -10 -3 0 -8 5 -11 10 -3 6 -1 10 4 10 6 0 11
-4 11 -10z m40 0 c0 -5 -2 -10 -4 -10 -3 0 -8 5 -11 10 -3 6 -1 10 4 10 6 0
11 -4 11 -10z m40 0 c0 -5 -2 -10 -4 -10 -3 0 -8 5 -11 10 -3 6 -1 10 4 10 6
0 11 -4 11 -10z m460 -10 c0 -5 -2 -10 -4 -10 -3 0 -8 5 -11 10 -3 6 -1 10 4
10 6 0 11 -4 11 -10z m35 0 c3 -5 1 -10 -4 -10 -6 0 -11 5 -11 10 0 6 2 10 4
10 3 0 8 -4 11 -10z m70 0 c3 -5 1 -10 -4 -10 -6 0 -11 5 -11 10 0 6 2 10 4
10 3 0 8 -4 11 -10z m30 0 c3 -5 1 -10 -4 -10 -6 0 -11 5 -11 10 0 6 2 10 4
10 3 0 8 -4 11 -10z m65 0 c0 -5 -5 -10 -11 -10 -5 0 -7 5 -4 10 3 6 8 10 11
10 2 0 4 -4 4 -10z m-2657 -7 c-7 -2 -19 -2 -25 0 -7 3 -2 5 12 5 14 0 19 -2
13 -5z m85 0 c-10 -2 -28 -2 -40 0 -13 2 -5 4 17 4 22 1 32 -1 23 -4z m1704
-89 c-1 -48 -4 -89 -7 -92 -3 -3 -5 39 -5 93 0 54 3 95 7 92 4 -4 6 -46 5 -93z
m2518 86 c13 -8 13 -10 -2 -10 -9 0 -20 5 -23 10 -8 13 5 13 25 0z m-1089
-117 c-3 -120 -11 -119 -11 2 0 54 3 96 6 92 4 -3 6 -46 5 -94z m1026 75 c-3
-8 -6 -5 -6 6 -1 11 2 17 5 13 3 -3 4 -12 1 -19z m-2407 2 c0 -5 -4 -10 -10
-10 -5 0 -10 5 -10 10 0 6 5 10 10 10 6 0 10 -4 10 -10z m40 0 c0 -5 -4 -10
-10 -10 -5 0 -10 5 -10 10 0 6 5 10 10 10 6 0 10 -4 10 -10z m40 0 c0 -5 -4
-10 -10 -10 -5 0 -10 5 -10 10 0 6 5 10 10 10 6 0 10 -4 10 -10z m2566 -7 c-9
-10 -86 -8 -86 2 0 6 19 9 46 7 25 -2 43 -6 40 -9z m-2449 1 c-3 -3 -12 -4
-19 -1 -8 3 -5 6 6 6 11 1 17 -2 13 -5z m418 -4 c3 -5 1 -10 -4 -10 -6 0 -11
5 -11 10 0 6 2 10 4 10 3 0 8 -4 11 -10z m2220 0 c4 -6 -18 -10 -59 -10 -37 0
-66 4 -66 10 0 6 26 10 59 10 33 0 63 -4 66 -10z m782 -12 c-3 -8 -6 -5 -6 6
-1 11 2 17 5 13 3 -3 4 -12 1 -19z m-2790 6 c-3 -3 -12 -4 -19 -1 -8 3 -5 6 6
6 11 1 17 -2 13 -5z m-4427 -14 c0 -5 -7 -7 -15 -4 -8 4 -15 8 -15 10 0 2 7 4
15 4 8 0 15 -4 15 -10z m3592 -15 c3 -14 1 -25 -3 -25 -5 0 -9 11 -9 25 0 14
2 25 4 25 2 0 6 -11 8 -25z m40 0 c3 -16 1 -25 -7 -25 -8 0 -10 9 -7 25 2 14
6 25 7 25 1 0 5 -11 7 -25z m2618 -7 c0 -6 -17 -8 -40 -6 -22 2 -42 -1 -44 -7
-2 -5 -5 -1 -5 10 -1 18 4 20 44 17 25 -2 45 -9 45 -14z m480 18 c0 -3 -4 -8
-10 -11 -5 -3 -10 -1 -10 4 0 6 5 11 10 11 6 0 10 -2 10 -4z m-7749 -16 c5 0
9 -4 9 -9 0 -4 -11 -6 -25 -3 -14 2 -25 9 -25 14 0 6 7 7 16 4 9 -3 20 -6 25
-6z m6212 3 c-7 -2 -19 -2 -25 0 -7 3 -2 5 12 5 14 0 19 -2 13 -5z m1242 -3
c4 -6 -18 -10 -59 -10 -37 0 -66 4 -66 10 0 6 26 10 59 10 33 0 63 -4 66 -10z
m-4785 -10 c0 -6 -11 -9 -25 -7 -37 5 -42 17 -7 17 18 0 32 -5 32 -10z m120
-1 c0 -5 -9 -9 -20 -9 -11 0 -20 4 -20 8 0 4 9 8 20 9 11 1 20 -2 20 -8z m78
-6 c-10 -2 -28 -2 -40 0 -13 2 -5 4 17 4 22 1 32 -1 23 -4z m576 -8 c3 -8 1
-15 -3 -15 -5 0 -11 7 -15 15 -3 8 -1 15 3 15 5 0 11 -7 15 -15z m208 -3 c4
-13 -1 -18 -16 -19 -12 -1 -15 1 -8 4 6 3 12 11 12 19 0 20 7 18 12 -4z m118
8 c0 -5 -7 -10 -16 -10 -8 0 -12 5 -9 10 3 6 10 10 16 10 5 0 9 -4 9 -10z
m967 4 c-3 -3 -12 -4 -19 -1 -8 3 -5 6 6 6 11 1 17 -2 13 -5z m43 -4 c0 -5 -2
-10 -4 -10 -3 0 -8 5 -11 10 -3 6 -1 10 4 10 6 0 11 -4 11 -10z m40 0 c0 -5
-2 -10 -4 -10 -3 0 -8 5 -11 10 -3 6 -1 10 4 10 6 0 11 -4 11 -10z m415 0 c3
-5 1 -10 -4 -10 -6 0 -11 5 -11 10 0 6 2 10 4 10 3 0 8 -4 11 -10z m985 6 c0
-2 -9 -6 -20 -9 -11 -3 -20 -1 -20 4 0 5 9 9 20 9 11 0 20 -2 20 -4z m-5120
-37 c0 -10 -6 -19 -14 -19 -9 0 -12 8 -8 25 5 28 22 24 22 -6z m3512 -9 c3
-16 1 -30 -4 -30 -4 0 -8 14 -8 30 0 17 2 30 4 30 2 0 6 -13 8 -30z m2653 15
c6 -2 -11 -4 -37 -4 -27 -1 -48 3 -48 7 0 7 62 5 85 -3z m130 5 c4 -6 -9 -10
-32 -9 -38 1 -38 1 -8 9 17 4 31 8 32 9 1 0 5 -3 8 -9z m-4364 -70 c-10 -25
-10 -25 -10 -2 -1 13 -7 22 -16 22 -22 0 -14 24 10 31 24 6 31 -15 16 -51z
m1622 40 c3 -11 1 -20 -4 -20 -5 0 -9 9 -9 20 0 11 2 20 4 20 2 0 6 -9 9 -20z
m80 0 c3 -11 1 -20 -4 -20 -5 0 -9 9 -9 20 0 11 2 20 4 20 2 0 6 -9 9 -20z
m-1250 -10 c-3 -12 -8 -19 -11 -16 -5 6 5 36 12 36 2 0 2 -9 -1 -20z m1331 5
c3 -8 1 -15 -4 -15 -6 0 -10 7 -10 15 0 8 2 15 4 15 2 0 6 -7 10 -15z m-1164
-30 c0 -19 -5 -35 -10 -35 -6 0 -9 12 -6 28 2 15 5 30 5 35 1 4 3 7 6 7 3 0 5
-16 5 -35z m1045 25 c3 -5 1 -10 -4 -10 -6 0 -11 5 -11 10 0 6 2 10 4 10 3 0
8 -4 11 -10z m80 0 c3 -5 1 -10 -4 -10 -6 0 -11 5 -11 10 0 6 2 10 4 10 3 0 8
-4 11 -10z m600 0 c3 -5 1 -10 -4 -10 -6 0 -11 5 -11 10 0 6 2 10 4 10 3 0 8
-4 11 -10z m-4645 -10 c0 -5 -4 -10 -10 -10 -5 0 -10 5 -10 10 0 6 5 10 10 10
6 0 10 -4 10 -10z m2780 0 c0 -5 -5 -10 -11 -10 -5 0 -7 5 -4 10 3 6 8 10 11
10 2 0 4 -4 4 -10z m2563 3 c-7 -2 -19 -2 -25 0 -7 3 -2 5 12 5 14 0 19 -2 13
-5z m1194 1 c-3 -3 -12 -4 -19 -1 -8 3 -5 6 6 6 11 1 17 -2 13 -5z m-2683 -56
c7 -5 5 -8 -6 -8 -13 0 -18 7 -17 28 1 21 2 22 6 7 3 -11 10 -23 17 -27z m28
17 c3 -14 1 -28 -3 -31 -5 -3 -9 9 -9 25 0 38 6 40 12 6z m40 0 c3 -16 1 -25
-7 -25 -8 0 -10 9 -7 25 2 14 6 25 7 25 1 0 5 -11 7 -25z m-1869 8 c-7 -2 -19
-2 -25 0 -7 3 -2 5 12 5 14 0 19 -2 13 -5z m75 0 c-10 -2 -28 -2 -40 0 -13 2
-5 4 17 4 22 1 32 -1 23 -4z m959 -9 c-1 -7 7 -19 17 -27 17 -13 10 -14 -62
-13 -81 1 -82 1 -82 27 0 24 2 25 65 25 46 0 64 -4 62 -12z m1818 6 c4 -6 -5
-10 -19 -10 -14 0 -26 -5 -26 -11 0 -5 -4 -7 -10 -4 -5 3 -10 13 -10 21 0 16
55 20 65 4z m2815 3 c-1 -34 -82 -44 -88 -10 -3 14 4 17 42 17 25 0 46 -3 46
-7z m-3756 -18 c3 -8 1 -15 -4 -15 -6 0 -10 7 -10 15 0 8 2 15 4 15 2 0 6 -7
10 -15z m40 0 c3 -8 1 -15 -4 -15 -6 0 -10 7 -10 15 0 8 2 15 4 15 2 0 6 -7
10 -15z m39 0 c4 -8 2 -17 -3 -20 -6 -4 -10 3 -10 14 0 25 6 27 13 6z m-865
-60 c-1 -36 -6 -65 -10 -65 -4 0 -8 29 -8 65 0 36 4 65 10 65 5 0 9 -28 8 -65z
m1327 55 c3 -5 1 -10 -4 -10 -6 0 -11 5 -11 10 0 6 2 10 4 10 3 0 8 -4 11 -10z
m-2218 -35 c0 -8 -4 -15 -9 -15 -4 0 -8 7 -8 15 0 8 4 15 8 15 5 0 9 -7 9 -15z
m1053 6 c0 -14 -58 -31 -106 -31 -54 0 -63 26 -11 33 63 8 117 7 117 -2z m577
-23 c-3 -7 -5 -2 -5 12 0 14 2 19 5 13 2 -7 2 -19 0 -25z m3776 -49 c19 -1 20
-2 3 -6 -23 -6 -46 21 -45 51 1 14 4 10 10 -11 7 -24 16 -33 32 -34z m-5830
44 c-7 -2 -21 -2 -30 0 -10 3 -4 5 12 5 17 0 24 -2 18 -5z m1900 -13 c3 -11 1
-18 -4 -14 -5 3 -9 12 -9 20 0 20 7 17 13 -6z m207 -1 c0 -5 -4 -9 -10 -9 -5
0 -10 7 -10 16 0 8 5 12 10 9 6 -3 10 -10 10 -16z m-175 1 c3 -5 1 -10 -4 -10
-6 0 -11 5 -11 10 0 6 2 10 4 10 3 0 8 -4 11 -10z m-2198 -6 c-3 -3 -12 -4
-19 -1 -8 3 -5 6 6 6 11 1 17 -2 13 -5z m543 -4 c0 -5 -17 -9 -37 -9 l-38 2
35 7 c19 4 36 8 38 9 1 0 2 -3 2 -9z m1788 -4 c-7 -8 -17 -12 -22 -9 -4 3 -2
9 5 14 22 13 31 11 17 -5z m-3843 -17 c-4 -5 -1 -9 4 -9 6 0 11 8 12 18 0 11
2 12 6 4 9 -22 -15 -38 -59 -39 -28 0 -33 1 -14 4 17 3 30 12 33 24 3 10 9 16
14 13 5 -3 7 -10 4 -15z m735 11 c0 -5 -4 -10 -10 -10 -5 0 -10 5 -10 10 0 6
5 10 10 10 6 0 10 -4 10 -10z m1223 3 c-7 -2 -19 -2 -25 0 -7 3 -2 5 12 5 14
0 19 -2 13 -5z m-1839 -31 c3 -5 -8 -6 -25 -4 -16 2 -29 6 -29 8 0 8 49 4 54
-4z m3719 -22 c3 -11 1 -23 -4 -26 -5 -3 -9 6 -9 20 0 31 6 34 13 6z m34 -12
c-3 -8 -6 -5 -6 6 -1 11 2 17 5 13 3 -3 4 -12 1 -19z m-4347 2 c0 -5 -9 -10
-19 -10 -11 0 -23 5 -26 10 -4 6 5 10 19 10 14 0 26 -4 26 -10z m2523 -7 c-7
-2 -21 -2 -30 0 -10 3 -4 5 12 5 17 0 24 -2 18 -5z m-1453 -13 c0 -5 -4 -10
-10 -10 -5 0 -10 5 -10 10 0 6 5 10 10 10 6 0 10 -4 10 -10z m1370 -20 c0 -5
-7 -10 -15 -10 -8 0 -15 5 -15 10 0 6 7 10 15 10 8 0 15 -4 15 -10z m78 3
c-10 -2 -28 -2 -40 0 -13 2 -5 4 17 4 22 1 32 -1 23 -4z m5562 -60 c0 -11 -3
-14 -8 -7 -4 6 -14 14 -22 17 -10 4 -8 6 8 6 15 1 22 -5 22 -16z m-17 -33 c3
-11 2 -20 -3 -20 -4 0 -10 11 -12 25 -6 29 7 25 15 -5z m-7963 -20 c0 -5 -19
-9 -42 -9 -40 1 -41 2 -13 9 44 11 55 11 55 0z m2333 3 c-7 -2 -19 -2 -25 0
-7 3 -2 5 12 5 14 0 19 -2 13 -5z m85 0 c-10 -2 -28 -2 -40 0 -13 2 -5 4 17 4
22 1 32 -1 23 -4z m-2268 -10 c-8 -4 -21 -12 -28 -20 -7 -7 -19 -13 -26 -13
-6 0 -18 -9 -26 -20 -21 -29 -30 -25 -30 14 0 32 3 35 33 39 50 6 93 6 77 0z
m930 3 c0 -11 -19 -15 -25 -6 -3 5 1 10 9 10 9 0 16 -2 16 -4z m-710 -16 c0
-5 -7 -7 -15 -4 -8 4 -15 8 -15 10 0 2 7 4 15 4 8 0 15 -4 15 -10z m140 6 c0
-3 -4 -8 -10 -11 -5 -3 -10 -1 -10 4 0 6 5 11 10 11 6 0 10 -2 10 -4z m-1020
-26 c0 -5 -21 -9 -47 -9 l-48 2 40 7 c22 4 43 8 48 9 4 0 7 -3 7 -9z m133 3
c-7 -2 -19 -2 -25 0 -7 3 -2 5 12 5 14 0 19 -2 13 -5z m157 -41 c0 -25 -3 -42
-7 -39 -3 4 -12 2 -19 -4 -18 -15 -27 6 -14 31 11 21 8 23 -27 20 -13 -1 -23
3 -23 8 0 6 -12 15 -27 20 -23 7 -14 9 45 9 l72 0 0 -45z m-237 31 c-7 -2 -19
-2 -25 0 -7 3 -2 5 12 5 14 0 19 -2 13 -5z m872 -3 c-3 -5 -21 -10 -38 -9 -31
1 -31 1 -7 9 36 11 52 11 45 0z m-440 -20 c-28 -12 -45 -12 -45 0 0 6 15 10
33 9 27 0 29 -2 12 -9z m-402 -7 c-7 -2 -19 -2 -25 0 -7 3 -2 5 12 5 14 0 19
-2 13 -5z m70 0 c-7 -2 -21 -2 -30 0 -10 3 -4 5 12 5 17 0 24 -2 18 -5z m2570
0 c-7 -2 -19 -2 -25 0 -7 3 -2 5 12 5 14 0 19 -2 13 -5z m-1603 -18 c0 -8 -4
-15 -10 -15 -5 0 -7 7 -4 15 4 8 8 15 10 15 2 0 4 -7 4 -15z m1810 1 c0 -2 -9
-6 -20 -9 -11 -3 -20 -1 -20 4 0 5 9 9 20 9 11 0 20 -2 20 -4z m580 -11 c0 -8
-4 -15 -10 -15 -5 0 -10 7 -10 15 0 8 5 15 10 15 6 0 10 -7 10 -15z m-3280 -7
c0 -10 -42 -14 -168 -16 -92 -2 -164 -1 -160 3 4 4 75 9 159 11 83 1 154 5
157 8 8 9 12 7 12 -6z m2613 5 c-7 -2 -21 -2 -30 0 -10 3 -4 5 12 5 17 0 24
-2 18 -5z m-2973 -13 c0 -5 -5 -10 -11 -10 -5 0 -7 5 -4 10 3 6 8 10 11 10 2
0 4 -4 4 -10z m8510 0 c0 -5 -5 -10 -11 -10 -5 0 -7 5 -4 10 3 6 8 10 11 10 2
0 4 -4 4 -10z m-8383 -65 c0 -8 -4 -15 -9 -15 -10 0 -11 14 -1 23 9 10 10 9
10 -8z m92 3 c7 11 9 11 14 -2 5 -13 -2 -16 -38 -16 -24 0 -47 5 -51 12 -5 8
-2 9 9 5 10 -3 17 -2 17 3 0 6 9 5 20 -2 17 -11 22 -10 29 0z m68 6 c-3 -3
-12 -4 -19 -1 -8 3 -5 6 6 6 11 1 17 -2 13 -5z m-197 -15 c0 -5 -11 -9 -25 -9
-33 0 -33 15 0 16 14 1 25 -2 25 -7z m2698 4 c-10 -2 -26 -2 -35 0 -10 3 -2 5
17 5 19 0 27 -2 18 -5z m65 0 c-7 -2 -19 -2 -25 0 -7 3 -2 5 12 5 14 0 19 -2
13 -5z m117 -23 c0 -5 -10 -10 -22 -9 -22 0 -22 1 -3 9 11 5 21 9 23 9 1 1 2
-3 2 -9z m78 3 c-10 -2 -28 -2 -40 0 -13 2 -5 4 17 4 22 1 32 -1 23 -4z m-202
-10 c-3 -4 -17 -8 -29 -10 -17 -2 -19 -1 -7 7 17 11 47 14 36 3z m-2659 -29
c-3 -3 -12 -4 -19 -1 -8 3 -5 6 6 6 11 1 17 -2 13 -5z m-114 -21 c-7 -2 -19
-2 -25 0 -7 3 -2 5 12 5 14 0 19 -2 13 -5z m980 -10 c-7 -2 -19 -2 -25 0 -7 3
-2 5 12 5 14 0 19 -2 13 -5z m80 0 c-13 -2 -33 -2 -45 0 -13 2 -3 4 22 4 25 0
35 -2 23 -4z m1637 -17 c0 -3 -4 -8 -10 -11 -5 -3 -10 -1 -10 4 0 6 5 11 10
11 6 0 10 -2 10 -4z m-253 -48 c-3 -8 -6 -5 -6 6 -1 11 2 17 5 13 3 -3 4 -12
1 -19z m333 18 c0 -2 -13 -6 -29 -8 -17 -2 -28 -1 -25 4 5 8 54 12 54 4z
m-356 -21 c3 -8 1 -15 -4 -15 -6 0 -10 7 -10 15 0 8 2 15 4 15 2 0 6 -7 10
-15z m-1024 -5 c0 -5 -7 -10 -15 -10 -8 0 -15 5 -15 10 0 6 7 10 15 10 8 0 15
-4 15 -10z m67 4 c-3 -3 -12 -4 -19 -1 -8 3 -5 6 6 6 11 1 17 -2 13 -5z m74
-14 c5 0 9 -4 9 -9 0 -5 -11 -8 -25 -8 -15 0 -25 5 -25 14 0 10 6 13 16 9 9
-3 20 -6 25 -6z m1664 0 c3 -5 -1 -10 -10 -10 -9 0 -13 5 -10 10 3 6 8 10 10
10 2 0 7 -4 10 -10z m-2192 -6 c13 -13 -3 -20 -37 -16 -20 2 -36 8 -36 13 0
10 63 12 73 3z m607 -9 c0 -8 5 -15 11 -15 5 0 7 -4 4 -10 -3 -5 -19 -10 -36
-10 -16 0 -29 5 -29 10 0 6 7 10 15 10 8 0 15 7 15 15 0 8 5 15 10 15 6 0 10
-7 10 -15z m-525 -5 c-3 -5 -18 -9 -33 -9 l-27 1 30 8 c17 4 31 8 33 9 2 0 0
-3 -3 -9z m2395 -18 c15 -10 -30 -18 -87 -15 -93 5 -102 17 -22 31 37 7 87 -1
109 -16z m-587 11 c-7 -2 -19 -2 -25 0 -7 3 -2 5 12 5 14 0 19 -2 13 -5z m60
0 c-7 -2 -19 -2 -25 0 -7 3 -2 5 12 5 14 0 19 -2 13 -5z m-523 -13 c0 -5 -7
-10 -15 -10 -8 0 -15 5 -15 10 0 6 7 10 15 10 8 0 15 -4 15 -10z m340 6 c0 -2
-7 -6 -15 -10 -8 -3 -15 -1 -15 4 0 6 7 10 15 10 8 0 15 -2 15 -4z m193 -23
c-7 -2 -19 -2 -25 0 -7 3 -2 5 12 5 14 0 19 -2 13 -5z m5491 1 c20 -8 23 -114
4 -114 -10 0 -10 -2 0 -9 8 -4 11 -20 9 -37 -3 -23 -9 -28 -26 -27 -11 2 -21
-2 -21 -7 0 -6 6 -11 13 -11 6 -1 19 -2 27 -3 19 -1 26 -36 8 -47 -7 -5 -8 -9
-2 -9 6 0 9 -10 7 -24 -4 -20 -11 -24 -32 -23 -20 2 -29 10 -38 37 -16 45 -16
80 0 80 8 0 9 2 1 8 -14 9 -15 60 -2 68 6 4 5 10 -3 15 -11 6 -11 14 -1 42 7
19 10 42 6 51 -6 17 19 22 50 10z m-7937 -19 c-6 -17 -45 -17 -68 -1 -20 14
-18 14 25 13 25 -1 44 -6 43 -12z m2366 8 c-7 -2 -19 -2 -25 0 -7 3 -2 5 12 5
14 0 19 -2 13 -5z m-476 -70 c-2 -16 -4 -5 -4 22 0 28 2 40 4 28 2 -13 2 -35
0 -50z m351 60 c-10 -2 -26 -2 -35 0 -10 3 -2 5 17 5 19 0 27 -2 18 -5z m467
-3 c-3 -5 -10 -10 -16 -10 -5 0 -9 5 -9 10 0 6 7 10 16 10 8 0 12 -4 9 -10z
m240 0 c-3 -5 -14 -10 -23 -10 -15 0 -15 2 -2 10 20 13 33 13 25 0z m-1028
-32 c-3 -8 -6 -5 -6 6 -1 11 2 17 5 13 3 -3 4 -12 1 -19z m713 3 c0 -8 -6 -11
-16 -7 -9 3 -20 6 -25 6 -5 0 -9 3 -9 8 0 4 11 7 25 7 14 0 25 -6 25 -14z
m247 3 c-3 -3 -12 -4 -19 -1 -8 3 -5 6 6 6 11 1 17 -2 13 -5z m80 -21 c6 -17
-68 -27 -78 -11 -6 9 0 15 24 19 39 8 50 6 54 -8z m63 -14 c0 -6 -3 -8 -7 -6
-5 2 -16 7 -26 10 -10 4 -15 11 -12 17 7 12 45 -5 45 -21z m-2955 11 c3 -5 1
-10 -4 -10 -6 0 -11 5 -11 10 0 6 2 10 4 10 3 0 8 -4 11 -10z m2740 0 c-3 -5
-12 -10 -20 -10 -8 0 -17 5 -20 10 -4 6 5 10 20 10 15 0 24 -4 20 -10z m3584
-32 c22 -22 37 -47 34 -54 -3 -8 2 -11 16 -7 11 3 20 8 19 12 -2 19 4 24 13
11 9 -13 10 -13 8 0 -2 22 0 33 10 48 6 10 21 1 58 -36 28 -28 45 -48 39 -46
-13 5 -53 -33 -44 -41 3 -3 17 -1 32 5 15 5 32 8 37 4 5 -3 9 3 9 13 0 39 16
46 41 21 14 -14 34 -30 44 -36 20 -12 20 -12 -2 -30 l-21 -19 28 -16 c15 -10
35 -17 45 -17 9 0 30 -7 47 -16 24 -12 28 -18 17 -25 -8 -5 -27 -9 -42 -9 -30
0 -47 -24 -29 -42 6 -6 8 -16 6 -23 -3 -7 -1 -16 5 -19 13 -9 -8 -46 -26 -46
-15 0 -16 5 -4 46 7 24 5 36 -10 55 -15 20 -19 21 -19 7 0 -10 -4 -18 -10 -18
-5 0 -10 -16 -10 -35 0 -19 5 -35 10 -35 16 0 12 -27 -5 -34 -25 -9 -55 16
-55 46 0 27 -21 51 -27 31 -4 -12 -53 6 -53 20 0 4 -11 5 -25 1 -15 -4 -25 -2
-25 5 0 6 -14 11 -32 11 -70 0 -303 43 -316 59 -8 10 -15 12 -22 5 -8 -8 -39
-6 -103 6 -51 10 -156 28 -234 41 -79 12 -143 25 -143 29 0 3 37 27 81 52 70
39 86 45 113 37 26 -7 215 -36 346 -53 19 -3 112 -16 205 -30 172 -26 261 -33
175 -14 -24 6 -50 18 -57 28 -11 16 -90 37 -121 31 -7 -1 -38 3 -70 10 -31 6
-70 11 -87 10 -41 -1 -13 15 43 24 23 4 40 11 36 16 -3 5 0 9 5 9 6 0 10 3 9
8 -1 8 12 42 18 42 2 0 22 -19 43 -42z m-2912 26 c-3 -3 -12 -4 -19 -1 -8 3
-5 6 6 6 11 1 17 -2 13 -5z m-1247 -14 c0 -5 -5 -10 -11 -10 -5 0 -7 5 -4 10
3 6 8 10 11 10 2 0 4 -4 4 -10z m938 4 c12 -4 22 -11 22 -16 0 -10 -39 -1 -54
13 -12 11 -1 11 32 3z m482 -4 c13 -9 13 -10 0 -10 -8 0 -22 5 -30 10 -13 9
-13 10 0 10 8 0 22 -5 30 -10z m-164 -27 c-6 -15 -9 -15 -16 -3 -6 9 -5 17 3
22 16 10 21 2 13 -19z m-1653 -12 c-2 -11 2 -21 7 -21 6 0 10 5 10 10 0 6 5
10 11 10 13 0 1 -42 -15 -52 -14 -9 -13 -10 -25 40 -7 32 -6 42 2 39 7 -2 11
-14 10 -26z m584 23 c-3 -3 -12 -4 -19 -1 -8 3 -5 6 6 6 11 1 17 -2 13 -5z
m831 -32 c5 -16 -9 -15 -49 2 -27 11 -29 15 -13 18 24 5 57 -5 62 -20z m425
21 c-7 -2 -19 -2 -25 0 -7 3 -2 5 12 5 14 0 19 -2 13 -5z m-679 -13 c-5 -5
-39 -12 -74 -15 -75 -6 -70 1 10 14 77 12 75 12 64 1z m415 -7 c-7 -8 -4 -13
8 -16 15 -3 14 -6 -7 -14 -20 -9 -26 -8 -29 6 -2 9 -7 21 -11 26 -5 6 2 10 20
10 20 0 26 -3 19 -12z m178 11 c-3 -3 -12 -4 -19 -1 -8 3 -5 6 6 6 11 1 17 -2
13 -5z m270 0 c-3 -3 -12 -4 -19 -1 -8 3 -5 6 6 6 11 1 17 -2 13 -5z m-3867
-8 c0 -3 -4 -8 -10 -11 -5 -3 -10 -1 -10 4 0 6 5 11 10 11 6 0 10 -2 10 -4z
m1780 -17 c0 -4 -7 -6 -15 -3 -8 4 -15 10 -15 15 0 4 7 6 15 3 8 -4 15 -10 15
-15z m1030 9 c0 -8 -120 -22 -127 -14 -4 3 5 6 18 6 13 0 29 4 36 8 14 9 73 9
73 0z m660 2 c0 -5 -4 -10 -9 -10 -6 0 -13 5 -16 10 -3 6 1 10 9 10 9 0 16 -4
16 -10z m-270 -15 c10 -12 4 -12 -135 -19 -55 -3 -130 -9 -167 -14 -37 -4 -71
-5 -76 0 -9 9 -74 -1 -68 -11 3 -4 -28 -6 -67 -4 -89 3 -88 3 -52 14 17 5 90
12 164 15 73 3 145 10 158 15 14 5 29 6 35 3 15 -10 118 -5 137 6 20 11 60 9
71 -5z m128 -5 c5 -13 3 -13 -12 -1 -15 13 -19 13 -26 1 -5 -8 -12 -11 -17 -7
-9 10 17 28 36 24 8 -1 17 -9 19 -17z m219 -12 c-3 -8 -6 -5 -6 6 -1 11 2 17
5 13 3 -3 4 -12 1 -19z m4500 -8 c14 0 15 -2 4 -12 -10 -11 -15 -9 -27 6 -8
11 -14 25 -14 30 0 6 5 3 11 -6 5 -10 17 -18 26 -18z m-6317 -6 c0 -8 -4 -12
-10 -9 -5 3 -10 13 -10 21 0 8 5 12 10 9 6 -3 10 -13 10 -21z m98 4 c-3 -7
-15 -14 -29 -16 -24 -4 -24 -3 -4 12 24 19 38 20 33 4z m2282 -40 c0 -21 -5
-28 -20 -28 -16 0 -19 6 -16 29 2 15 7 34 11 41 11 17 25 -6 25 -42z m2753
-15 c17 -9 17 -11 -8 -27 -21 -14 -38 -16 -74 -11 -68 9 -80 20 -39 34 26 9
30 14 18 21 -14 9 -7 14 13 11 5 -1 6 3 2 9 -3 5 -3 15 1 21 4 7 18 0 38 -19
17 -16 39 -34 49 -39z m387 57 c0 -5 -7 -7 -15 -4 -8 4 -15 8 -15 10 0 2 7 4
15 4 8 0 15 -4 15 -10z m34 -5 c-6 -13 6 -20 29 -16 4 0 7 -3 7 -9 0 -13 -6
-13 -31 0 -20 11 -27 40 -9 40 5 0 7 -7 4 -15z m-4737 -1 c-3 -3 -12 -4 -19
-1 -8 3 -5 6 6 6 11 1 17 -2 13 -5z m-504 -19 c4 -8 1 -18 -5 -21 -8 -5 -5
-10 8 -16 15 -7 14 -7 -6 -3 -14 2 -37 5 -52 5 -53 0 -18 45 38 49 7 1 14 -6
17 -14z m77 5 c0 -5 -5 -10 -11 -10 -5 0 -7 5 -4 10 3 6 8 10 11 10 2 0 4 -4
4 -10z m1216 -8 c-16 -2 -32 0 -37 5 -5 5 7 7 29 4 34 -5 35 -6 8 -9z m3674
-52 c6 0 10 -27 9 -62 l-1 -63 -10 43 c-11 49 -31 55 -52 15 -14 -26 -15 -26
-16 -6 0 18 -10 25 -47 36 l-48 15 28 13 c16 7 26 18 23 26 -6 14 9 19 17 6 2
-5 2 -2 1 5 -2 6 -1 19 2 27 5 12 14 8 45 -20 22 -19 44 -35 49 -35z m-4911
47 c6 -8 8 -17 4 -20 -13 -13 -31 -7 -36 13 -6 23 14 27 32 7z m471 9 c0 -3
-4 -8 -10 -11 -5 -3 -10 -1 -10 4 0 6 5 11 10 11 6 0 10 -2 10 -4z m321 -29
c-14 -14 -145 -15 -149 -2 -3 11 97 23 136 16 16 -2 20 -7 13 -14z m4171 16
c-6 -2 -9 -10 -6 -15 4 -7 2 -8 -4 -4 -18 11 -14 26 6 25 10 0 12 -3 4 -6z
m298 -9 c0 12 30 -14 30 -27 0 -6 -7 -2 -15 9 -9 12 -14 14 -15 6 0 -7 -4 -10
-10 -7 -5 3 -10 14 -10 23 0 15 2 15 10 2 5 -8 10 -11 10 -6z m-4787 -36 c-2
-5 -12 -8 -22 -8 -13 0 -18 7 -18 25 0 23 0 24 22 7 13 -9 21 -20 18 -24z
m762 32 c-3 -5 -12 -7 -20 -3 -21 7 -19 13 6 13 11 0 18 -4 14 -10z m65 -4
c-4 -4 -16 -4 -26 2 -16 9 -14 10 8 9 15 -1 23 -6 18 -11z m86 1 c4 8 12 8 32
-3 18 -9 28 -10 33 -3 4 6 65 11 157 12 169 2 187 -3 158 -49 -13 -18 -21 -23
-28 -16 -8 8 -24 -4 -54 -36 -24 -26 -44 -50 -44 -54 0 -3 24 -8 53 -11 28 -3
72 -8 97 -11 25 -3 63 -7 85 -8 49 -4 65 -13 65 -39 0 -19 0 -19 -19 0 -26 26
-59 17 -63 -17 -5 -39 -28 -40 -28 -1 0 18 -3 30 -6 27 -3 -4 -19 -2 -35 2
-25 7 -29 6 -29 -11 0 -10 -7 -19 -15 -19 -8 0 -15 9 -15 20 0 13 -7 20 -19
20 -11 0 -26 3 -35 6 -11 4 -16 1 -16 -10 0 -9 -4 -16 -10 -16 -5 0 -10 7 -10
15 0 8 -6 15 -12 16 -7 0 -25 2 -40 4 -19 2 -28 -1 -28 -11 0 -8 -5 -14 -11
-14 -6 0 -9 6 -6 13 2 6 -5 17 -17 24 -18 10 -13 12 39 18 33 4 63 13 67 19 4
6 8 28 8 49 0 43 8 41 -145 27 -329 -31 -533 -50 -552 -50 -21 0 -23 -5 -23
-49 l0 -49 -67 -11 c-38 -7 -101 -17 -142 -24 l-74 -12 -4 -70 c-5 -92 3 -141
22 -125 9 7 15 8 20 0 3 -5 21 -10 38 -11 l32 -1 -30 -10 c-16 -5 -37 -12 -45
-14 -12 -4 -12 -6 0 -14 8 -5 18 -6 22 -4 4 3 8 1 8 -3 0 -14 -132 -35 -144
-23 -7 7 -6 10 4 10 12 0 15 19 16 97 3 257 3 261 21 267 9 4 20 1 25 -6 6
-10 8 -8 8 4 0 15 -7 17 -47 12 -55 -7 -73 -25 -73 -70 0 -18 -5 -36 -10 -39
-12 -8 -286 -55 -318 -55 -20 0 -23 4 -20 33 l3 32 85 13 c140 21 130 16 130
70 l0 47 -85 -4 c-70 -2 -85 0 -85 12 0 11 20 16 88 22 48 4 90 12 94 19 5 6
8 7 8 1 0 -13 223 -9 340 6 47 6 123 12 169 14 96 4 161 14 160 23 -3 18 2 24
14 15 6 -6 23 -13 36 -16 37 -9 235 11 240 24 2 8 6 7 13 -2 7 -10 11 -11 14
-2z m3624 -7 c0 -5 3 -17 7 -27 6 -16 5 -16 -10 -4 -10 8 -15 16 -12 19 3 3 0
11 -7 19 -8 11 -7 12 6 7 9 -3 16 -10 16 -14z m-4394 -13 c1 -9 -1 -17 -6 -17
-12 0 -30 26 -23 34 11 10 26 1 29 -17z m-236 3 c0 -12 -44 -12 -80 0 -20 6
-14 8 28 9 28 1 52 -3 52 -9z m34 -5 c-4 -8 -10 -12 -15 -9 -11 6 -2 24 11 24
5 0 7 -7 4 -15z m4923 -1 c-3 -3 -12 -4 -19 -1 -8 3 -5 6 6 6 11 1 17 -2 13
-5z m-256 -32 c-6 -2 -9 -8 -5 -13 3 -5 1 -9 -5 -9 -16 0 -22 18 -9 23 8 3 6
6 -4 6 -10 1 -18 5 -18 11 0 6 11 5 26 -2 15 -7 21 -14 15 -16z m57 -33 c-20
-13 -38 -11 -32 5 3 8 13 12 25 9 16 -5 18 -8 7 -14z m-3658 2 c0 -5 -7 -11
-15 -15 -15 -5 -20 5 -8 17 9 10 23 9 23 -2z m-2300 -31 c0 -11 -2 -20 -4 -20
-2 0 -6 9 -9 20 -3 11 -1 20 4 20 5 0 9 -9 9 -20z m662 -12 c-9 -9 -15 -9 -24
0 -9 9 -7 12 12 12 19 0 21 -3 12 -12z m4928 -8 c0 -5 -5 -10 -11 -10 -5 0 -7
5 -4 10 3 6 8 10 11 10 2 0 4 -4 4 -10z m17 -12 c-3 -8 -6 -5 -6 6 -1 11 2 17
5 13 3 -3 4 -12 1 -19z m-6546 -25 c13 -17 13 -17 -6 -3 -11 8 -22 16 -24 17
-2 2 0 3 6 3 6 0 17 -8 24 -17z m7620 1 c3 -2 6 -26 7 -54 l1 -50 -34 0 c-24
0 -38 6 -45 19 -14 26 -13 38 2 23 7 -7 22 -12 35 -12 19 0 22 5 20 32 -3 39
-41 51 -50 16 -4 -12 -9 -19 -12 -16 -3 3 -3 18 1 32 6 24 10 26 38 20 17 -3
34 -8 37 -10z m-1433 -29 c-3 -3 -9 2 -12 12 -6 14 -5 15 5 6 7 -7 10 -15 7
-18z m-7128 -31 c0 -2 -7 -4 -15 -4 -8 0 -15 4 -15 10 0 5 7 7 15 4 8 -4 15
-8 15 -10z m117 10 c-3 -3 -12 -4 -19 -1 -8 3 -5 6 6 6 11 1 17 -2 13 -5z
m1823 -29 c0 -5 -5 -3 -10 5 -5 8 -10 20 -10 25 0 6 5 3 10 -5 5 -8 10 -19 10
-25z m1930 30 c0 -4 -31 -76 -37 -84 -8 -12 -275 18 -290 33 -2 2 34 9 79 16
46 7 117 18 158 25 93 16 90 16 90 10z m5707 -1 c-3 -3 -12 -4 -19 -1 -8 3 -5
6 6 6 11 1 17 -2 13 -5z m-8633 -12 c3 -5 -1 -9 -9 -9 -8 0 -15 4 -15 9 0 4 4
8 9 8 6 0 12 -4 15 -8z m936 -2 c0 -5 -5 -10 -11 -10 -5 0 -7 5 -4 10 3 6 8
10 11 10 2 0 4 -4 4 -10z m610 -15 c0 -7 -7 -21 -16 -30 -14 -14 -18 -49 -22
-229 l-5 -213 33 -6 c18 -4 49 -7 69 -7 20 0 43 -5 51 -11 11 -8 3 -9 -30 -5
-25 3 -90 11 -145 17 l-100 11 0 60 c0 54 2 59 25 65 l25 7 -25 6 c-22 6 -25
11 -22 48 1 23 -2 42 -7 42 -11 0 -21 -25 -21 -56 0 -13 -4 -24 -9 -24 -5 0
-23 -14 -40 -30 -17 -17 -47 -37 -68 -44 l-38 -13 -3 -79 c-2 -43 -7 -83 -12
-88 -13 -13 -13 -46 0 -46 5 0 13 8 19 17 7 14 26 19 90 21 53 3 79 8 74 15
-4 7 5 8 27 4 18 -4 44 -8 59 -8 25 -1 25 -2 -4 -9 -21 -5 -4 -8 60 -10 53 -1
82 -5 71 -9 -18 -7 -18 -8 -2 -14 28 -11 134 -8 138 4 2 7 26 7 78 1 60 -7 66
-10 31 -11 -24 0 -42 -4 -38 -7 3 -4 82 -8 174 -10 92 -2 182 -7 198 -13 l30
-9 -39 -1 c-56 -1 -40 -10 22 -12 54 -2 65 -11 35 -28 -10 -5 -15 -13 -10 -17
4 -4 15 3 26 14 12 15 30 22 52 22 l34 0 -5 -62 c-5 -60 -6 -62 -36 -69 -17
-3 -37 -9 -44 -14 -13 -8 -12 7 5 76 6 24 5 26 -19 22 -22 -5 -26 -11 -26 -39
0 -19 -2 -34 -5 -34 -2 0 -41 19 -85 41 -49 25 -100 43 -128 46 -26 2 -126 13
-222 24 -96 11 -256 28 -355 39 -260 28 -275 30 -247 41 21 8 22 14 22 99 0
49 -3 90 -7 90 -5 0 -35 -8 -68 -18 -58 -18 -60 -19 -60 -52 0 -36 -4 -33 88
-54 40 -9 25 -23 -40 -36 -39 -9 -52 -15 -42 -21 10 -6 7 -9 -13 -9 -15 0 -34
8 -44 17 -12 13 -19 14 -21 6 -4 -10 -8 -9 -19 1 -19 20 -18 23 16 35 24 8 30
16 30 40 0 37 -4 37 -92 9 -58 -19 -68 -25 -68 -45 0 -15 8 -27 23 -33 27 -11
7 -12 -56 -4 l-46 7 -3 46 c-3 39 -6 46 -25 49 -13 2 -23 10 -23 18 0 8 -4 14
-10 14 -5 0 -10 -4 -10 -10 0 -5 -22 -10 -50 -10 -41 0 -50 3 -51 18 0 10 -3
12 -6 5 -2 -7 -16 -13 -29 -13 -14 0 -23 4 -19 9 3 5 1 12 -5 16 -5 3 -10 0
-10 -8 0 -8 -9 -13 -22 -11 -13 1 -36 3 -51 3 -24 1 -27 4 -22 21 4 11 2 20
-4 20 -6 0 -11 -7 -11 -16 0 -15 -9 -16 -67 -11 -71 6 -320 35 -363 41 -14 3
-31 5 -37 5 -7 1 -14 9 -14 19 -1 16 -2 16 -6 0 -4 -15 -13 -17 -66 -11 -34 3
-66 10 -72 15 -6 6 -1 9 15 7 14 -1 33 2 44 6 12 5 21 3 27 -6 7 -12 9 -11 9
1 0 19 111 52 132 39 7 -5 25 -9 41 -9 27 0 32 -9 28 -52 -1 -10 3 -18 10 -18
7 0 9 10 7 25 -3 14 0 29 6 33 16 10 69 10 84 -1 7 -6 17 -5 26 2 10 8 16 9
21 1 3 -5 14 -10 23 -9 14 0 13 2 -3 8 -26 10 105 24 161 17 143 -19 147 -18
141 3 -3 13 0 21 8 21 8 0 11 -8 8 -22 -4 -20 -3 -21 7 -5 6 9 16 17 22 17 7
0 7 -5 -1 -14 -16 -19 8 -28 29 -11 8 7 25 16 38 19 18 6 22 3 22 -13 0 -12 4
-21 9 -21 5 0 16 -7 25 -15 23 -23 46 -8 46 31 0 19 2 34 4 34 2 0 12 3 22 7
14 5 16 2 12 -15 -4 -13 0 -23 8 -26 8 -3 13 -11 12 -18 -2 -8 7 -13 25 -13
15 1 27 -3 27 -8 0 -4 4 -5 10 -2 5 3 58 6 117 6 60 0 122 5 139 10 l32 10 1
103 1 103 -90 7 c-49 4 -92 12 -95 17 -3 5 0 7 7 5 7 -3 46 -7 86 -10 60 -4
72 -3 72 10 0 8 5 12 10 9 6 -4 8 -11 5 -16 -4 -5 -1 -9 4 -9 6 0 11 11 11 23
0 25 13 31 125 58 28 6 75 20 106 30 30 11 68 19 82 19 15 0 30 7 33 15 7 17
24 10 24 -10z m-330 -5 c-8 -5 -26 -9 -40 -9 -23 1 -23 2 5 9 43 11 52 11 35
0z m1335 -29 c-3 -6 -11 -11 -17 -11 -6 0 -6 6 2 15 14 17 26 13 15 -4z
m-2055 -6 c0 -8 -4 -15 -10 -15 -5 0 -10 7 -10 15 0 8 5 15 10 15 6 0 10 -7
10 -15z m7117 -1 c-3 -3 -1 -18 4 -33 l9 -26 -18 23 c-11 14 -24 21 -34 17 -9
-4 -18 0 -21 9 -5 13 1 16 30 16 20 0 34 -3 30 -6z m-7382 -14 c-3 -5 -16 -10
-28 -10 -18 0 -19 2 -7 10 20 13 43 13 35 0z m372 -12 c-3 -8 -6 -5 -6 6 -1
11 2 17 5 13 3 -3 4 -12 1 -19z m123 16 c-34 -7 -108 -8 -103 -1 2 4 30 6 61
6 31 -1 50 -3 42 -5z m250 -3 c0 -5 -10 -7 -22 -5 -13 2 -17 2 -10 -2 26 -12
10 -21 -25 -14 -40 10 -68 1 -37 -11 16 -6 16 -8 2 -8 -9 -1 -21 6 -26 15 -7
12 -21 15 -61 13 -28 -2 -51 -1 -51 3 0 4 44 9 98 11 53 1 105 4 115 5 9 1 17
-2 17 -7z m160 -3 l-35 -11 35 -13 c40 -14 25 -17 -44 -8 -50 7 -63 24 -18 24
15 0 34 5 42 10 8 5 24 9 35 9 12 0 6 -5 -15 -11z m-1680 -2 c0 -3 -4 -8 -10
-11 -5 -3 -10 -1 -10 4 0 6 5 11 10 11 6 0 10 -2 10 -4z m3510 -6 c0 -5 -7
-10 -15 -10 -8 0 -15 5 -15 10 0 6 7 10 15 10 8 0 15 -4 15 -10z m-2241 -10
c-10 -7 -49 -2 -49 5 0 2 14 3 31 3 17 -1 25 -4 18 -8z m2374 4 c23 -4 37 -12
37 -21 0 -9 -6 -13 -15 -9 -19 7 -19 1 1 -19 15 -15 15 -17 -3 -34 -10 -10
-30 -20 -44 -23 -23 -4 -24 -2 -21 28 3 22 10 34 24 37 19 5 19 7 4 22 -25 25
-59 10 -51 -22 3 -14 2 -22 -3 -19 -6 3 -12 19 -14 36 -4 27 -2 30 21 30 14 0
43 -3 64 -6z m-3093 -24 c6 -11 7 -20 2 -20 -6 0 -12 9 -15 20 -3 11 -3 20 -1
20 2 0 8 -9 14 -20z m1013 13 c-7 -2 -21 -2 -30 0 -10 3 -4 5 12 5 17 0 24 -2
18 -5z m-978 -13 c3 -5 1 -10 -4 -10 -6 0 -11 5 -11 10 0 6 2 10 4 10 3 0 8
-4 11 -10z m592 -12 c-3 -8 -6 -5 -6 6 -1 11 2 17 5 13 3 -3 4 -12 1 -19z
m308 4 c-3 -3 -11 0 -18 7 -9 10 -8 11 6 5 10 -3 15 -9 12 -12z m-845 -21 c0
-11 -4 -23 -10 -26 -6 -4 -10 5 -10 19 0 14 5 26 10 26 6 0 10 -9 10 -19z
m348 -13 c7 -10 22 -18 32 -18 10 0 21 -4 25 -10 3 -5 12 -7 20 -3 9 3 15 -1
15 -10 0 -23 -17 -30 -24 -11 -5 13 -9 14 -21 4 -13 -10 -19 -8 -36 14 -12 15
-30 26 -45 26 -13 0 -24 2 -24 4 0 2 -3 11 -6 19 -8 21 47 9 64 -15z m669 26
c-3 -3 -12 -4 -19 -1 -8 3 -5 6 6 6 11 1 17 -2 13 -5z m6590 0 c-3 -3 -12 -4
-19 -1 -8 3 -5 6 6 6 11 1 17 -2 13 -5z m-7024 -19 c-3 -9 -8 -14 -10 -11 -3
3 -2 9 2 15 9 16 15 13 8 -4z m6927 -12 c0 -8 5 -11 10 -8 6 4 9 -10 8 -37 -1
-37 -2 -39 -5 -10 -3 18 -13 38 -24 45 -22 14 -26 39 -4 31 8 -4 15 -13 15
-21z m-7250 1 c0 -8 -4 -14 -9 -14 -5 0 -16 -3 -25 -6 -11 -4 -16 -1 -16 10 0
9 -6 16 -14 16 -9 0 -12 -7 -9 -19 3 -14 -2 -20 -21 -23 -21 -4 -26 -1 -26 14
0 11 -4 16 -10 13 -5 -3 -10 -15 -10 -26 0 -12 -7 -19 -19 -19 -11 0 -26 -3
-35 -6 -11 -4 -16 -1 -16 10 0 9 -7 16 -17 16 -28 0 -9 9 31 14 20 3 44 10 51
16 8 7 19 9 24 5 6 -3 18 -2 27 3 26 15 94 12 94 -4z m1678 -126 c-9 -7 -5 -8
12 -5 14 3 43 2 65 -3 l40 -8 -41 -1 c-28 -1 -44 -6 -48 -17 -9 -24 1 -33 30
-28 l25 5 -19 -22 c-29 -31 -63 -18 -56 21 6 25 2 29 -30 41 -24 9 -33 16 -26
23 13 13 13 39 -1 31 -6 -4 -9 -1 -7 6 1 8 -2 14 -7 14 -6 0 -10 -8 -9 -17 0
-10 -3 -18 -8 -18 -4 0 -8 16 -8 35 0 33 2 35 39 41 30 5 38 10 34 22 -4 10
-2 13 5 8 7 -4 13 -1 14 6 1 7 4 -18 5 -56 3 -49 0 -72 -9 -78z m1851 135 c0
-5 -4 -17 -9 -28 -8 -18 -9 -17 -9 8 -1 15 4 27 9 27 6 0 10 -3 9 -7z m-1889
-18 c0 -1 -9 -5 -20 -8 -12 -3 -20 0 -20 8 0 8 8 11 20 8 11 -3 20 -7 20 -8z
m1050 -2 c0 -5 -5 -15 -10 -23 -8 -12 -10 -11 -10 8 0 12 5 22 10 22 6 0 10
-3 10 -7z m-2493 -35 c-3 -8 -6 -5 -6 6 -1 11 2 17 5 13 3 -3 4 -12 1 -19z
m-117 -10 c0 -19 -2 -20 -10 -8 -13 19 -13 30 0 30 6 0 10 -10 10 -22z m517
-15 c-3 -10 -5 -4 -5 12 0 17 2 24 5 18 2 -7 2 -21 0 -30z m1123 15 c0 -19 -2
-20 -10 -8 -13 19 -13 30 0 30 6 0 10 -10 10 -22z m-1493 -20 c-3 -7 -5 -2 -5
12 0 14 2 19 5 13 2 -7 2 -19 0 -25z m2525 5 c9 -16 26 -38 38 -51 12 -13 20
-26 17 -29 -8 -7 -56 48 -57 65 0 6 -4 12 -9 12 -5 0 -11 7 -15 15 -9 25 9 17
26 -12z m143 17 c3 -5 1 -10 -4 -10 -6 0 -11 5 -11 10 0 6 2 10 4 10 3 0 8 -4
11 -10z m669 4 c9 -3 16 -11 16 -16 0 -6 -6 -5 -15 2 -8 6 -20 8 -26 4 -8 -4
-9 -3 -5 4 8 14 9 14 30 6z m-893 -27 c-10 -9 -11 -8 -5 6 3 10 9 15 12 12 3
-3 0 -11 -7 -18z m1040 6 c11 -13 11 -15 1 -9 -8 5 -26 12 -40 16 l-27 8 26 1
c15 1 33 -7 40 -16z m-1161 -7 c0 -11 -19 -15 -25 -6 -3 5 1 10 9 10 9 0 16
-2 16 -4z m520 -31 c0 -19 -4 -35 -10 -35 -5 0 -10 -13 -10 -29 0 -26 -4 -30
-47 -40 -27 -5 -68 -13 -93 -17 -44 -7 -44 -8 -15 -15 30 -7 30 -7 3 -8 -15 0
-30 -5 -33 -11 -6 -10 4 -13 42 -12 21 1 22 -4 26 -76 l3 -77 2 93 c2 83 4 92
21 92 11 0 26 3 35 6 14 5 16 -4 16 -61 0 -62 1 -66 20 -60 19 6 20 2 20 -55
0 -51 -4 -64 -24 -83 -18 -17 -24 -33 -25 -75 l-1 -54 33 6 32 6 -35 -16
c-116 -55 -150 -63 -203 -50 -42 11 -44 13 -31 31 8 11 14 43 14 77 0 34 4 58
10 58 6 0 10 6 9 13 -1 6 -1 24 0 40 1 22 6 27 29 28 l27 2 -27 4 c-16 3 -28
11 -28 19 0 8 -4 13 -10 9 -6 -3 -9 39 -9 110 0 95 3 117 15 122 8 3 19 2 25
-4 10 -10 159 6 159 18 0 4 -17 10 -38 14 -69 11 -69 23 2 30 43 5 70 13 73
21 10 26 23 14 23 -21z m2933 28 c-7 -2 -19 -2 -25 0 -7 3 -2 5 12 5 14 0 19
-2 13 -5z m-6173 -7 c0 -3 -4 -8 -10 -11 -5 -3 -10 -1 -10 4 0 6 5 11 10 11 6
0 10 -2 10 -4z m104 -12 c4 -11 14 -15 30 -12 24 5 24 4 9 -19 -14 -21 -39
-29 -31 -10 5 12 -30 29 -43 21 -8 -4 -8 0 0 15 14 25 27 27 35 5z m3775 5
c28 -6 52 -17 55 -26 8 -19 8 -18 -21 -27 -14 -5 -23 -3 -23 3 0 6 5 11 10 11
6 0 10 4 10 9 0 5 -11 9 -24 9 -54 0 -136 14 -131 23 8 12 63 11 124 -2z
m2358 5 c-3 -3 -12 -4 -19 -1 -8 3 -5 6 6 6 11 1 17 -2 13 -5z m-6447 -24 c13
-8 13 -10 -2 -10 -9 0 -20 5 -23 10 -8 13 5 13 25 0z m450 0 c0 -5 -15 -9 -32
-9 l-33 1 30 8 c17 4 31 8 33 9 1 0 2 -3 2 -9z m7276 2 c6 -4 17 -18 24 -31
10 -19 10 -25 -1 -32 -21 -13 -36 -11 -43 7 -11 28 -6 39 9 20 8 -11 18 -17
22 -13 9 9 -27 48 -38 41 -5 -3 -9 0 -9 5 0 13 20 14 36 3z m-7568 -12 c15 -1
14 -3 -2 -15 -16 -12 -17 -18 -8 -27 9 -9 12 -9 12 1 0 7 4 10 9 6 5 -3 12 -1
15 3 5 8 25 9 59 3 14 -2 7 -21 -9 -21 -8 0 -12 5 -9 10 10 16 -5 12 -30 -8
-16 -13 -34 -17 -55 -14 -21 3 -28 7 -19 13 10 6 10 13 1 34 -11 24 -11 27 3
21 9 -3 24 -6 33 -6z m2502 0 c0 -5 -7 -10 -15 -10 -8 0 -15 5 -15 10 0 6 7
10 15 10 8 0 15 -4 15 -10z m-730 -17 c18 -17 17 -18 -13 -20 -24 -2 -28 0
-17 7 12 8 10 10 -10 10 -20 0 -22 2 -10 10 21 14 28 12 50 -7z m50 2 c16 -19
10 -19 -26 0 -25 13 -26 15 -8 15 12 0 27 -7 34 -15z m268 -2 c-10 -2 -26 -2
-35 0 -10 3 -2 5 17 5 19 0 27 -2 18 -5z m576 -42 c76 -29 118 -40 140 -36 17
3 62 7 99 10 71 5 73 3 39 -37 -9 -11 -13 -33 -11 -67 3 -33 0 -51 -7 -51 -8
0 -11 25 -9 78 2 42 1 65 -2 51 -3 -22 -11 -28 -46 -33 -23 -4 -57 -9 -76 -13
-32 -5 -34 -4 -29 19 5 27 10 23 -107 67 -92 35 -153 63 -125 57 14 -2 74 -23
134 -45z m-984 22 c0 -11 -3 -14 -8 -7 -4 6 -14 14 -22 17 -10 4 -8 6 8 6 15
1 22 -5 22 -16z m467 11 c-3 -3 -12 -4 -19 -1 -8 3 -5 6 6 6 11 1 17 -2 13 -5z
m780 -26 c-3 -7 -5 -2 -5 12 0 14 2 19 5 13 2 -7 2 -19 0 -25z m1103 17 c0 -8
-6 -12 -14 -9 -8 3 -24 1 -35 -6 -25 -13 -28 -2 -3 16 23 18 52 17 52 -1z
m-4150 -5 c0 -5 -2 -10 -4 -10 -3 0 -8 5 -11 10 -3 6 -1 10 4 10 6 0 11 -4 11
-10z m1750 6 c0 -3 -4 -8 -10 -11 -5 -3 -10 -1 -10 4 0 6 5 11 10 11 6 0 10
-2 10 -4z m-1696 -15 c4 -5 -3 -7 -14 -4 -23 6 -26 13 -6 13 8 0 17 -4 20 -9z
m216 -1 c0 -5 -4 -10 -10 -10 -5 0 -10 5 -10 10 0 6 5 10 10 10 6 0 10 -4 10
-10z m2711 -7 c13 -16 12 -17 -3 -4 -10 7 -18 15 -18 17 0 8 8 3 21 -13z
m-1011 -3 c0 -5 -10 -10 -22 -10 -19 0 -20 2 -8 10 19 13 30 13 30 0z m667
-12 c-3 -8 -6 -5 -6 6 -1 11 2 17 5 13 3 -3 4 -12 1 -19z m1493 12 c0 -5 -8
-10 -17 -10 -15 0 -16 2 -3 10 19 12 20 12 20 0z m-4533 -26 c-3 -3 -12 -4
-19 -1 -8 3 -5 6 6 6 11 1 17 -2 13 -5z m2149 -69 c-3 -42 -2 -76 3 -80 5 -3
58 -10 118 -16 59 -5 127 -12 151 -15 l42 -5 0 60 c0 68 6 91 26 91 10 0 14
-14 14 -51 0 -40 3 -49 13 -41 6 6 30 13 52 17 22 4 46 12 53 18 8 6 27 6 56
-3 51 -14 74 -7 51 16 -22 22 -19 43 5 37 11 -3 20 -10 20 -15 0 -5 4 -6 10
-3 6 4 7 -1 3 -11 -4 -12 -3 -15 5 -10 8 5 10 2 6 -8 -5 -12 1 -16 25 -18 17
-1 45 -2 61 -3 17 -1 30 2 30 7 0 4 -5 8 -11 8 -6 0 -4 7 5 15 23 24 32 18 28
-20 -4 -32 -6 -34 -31 -29 -18 4 -22 3 -13 -4 8 -5 12 -18 10 -28 -7 -40 -307
-42 -356 -2 -16 13 -26 4 -19 -17 4 -8 19 -16 34 -16 21 -1 23 -3 7 -6 -12 -2
-105 5 -207 16 -102 12 -193 21 -201 21 -10 0 -16 9 -16 26 0 20 -4 24 -17 20
-16 -5 -18 1 -16 57 1 34 2 62 2 62 1 0 15 1 32 2 l31 2 -6 -74z m134 60 c0
-8 -8 -15 -17 -15 -15 0 -15 2 -4 9 11 7 10 10 -5 14 -16 4 -16 5 4 6 13 1 22
-5 22 -14z m65 5 c3 -5 -1 -10 -9 -10 -9 0 -16 5 -16 10 0 6 4 10 9 10 6 0 13
-4 16 -10z m-2398 -6 c-3 -3 -12 -4 -19 -1 -8 3 -5 6 6 6 11 1 17 -2 13 -5z
m2623 -2 c0 -11 -48 -13 -55 -2 -4 6 7 10 24 10 17 0 31 -4 31 -8z m192 -1
c-12 -7 -62 -4 -62 5 0 2 17 4 38 4 23 0 32 -3 24 -9z m-332 -16 c0 -1 -9 -5
-20 -8 -12 -3 -20 0 -20 8 0 8 8 11 20 8 11 -3 20 -7 20 -8z m1618 -16 c-3 -8
-7 -3 -11 10 -4 17 -3 21 5 13 5 -5 8 -16 6 -23z m519 25 c-3 -3 -12 -4 -19
-1 -8 3 -5 6 6 6 11 1 17 -2 13 -5z m30 -16 c-3 -8 -6 -5 -6 6 -1 11 2 17 5
13 3 -3 4 -12 1 -19z m30 -25 c-3 -10 -5 -2 -5 17 0 19 2 27 5 18 2 -10 2 -26
0 -35z m-191 25 c5 -8 2 -9 -9 -5 -22 8 -22 -9 0 -22 10 -5 14 -13 9 -18 -5
-4 -11 -2 -13 5 -3 6 -11 12 -19 12 -16 0 -16 2 -8 24 7 19 30 21 40 4z m4194
-3 c0 -8 -4 -15 -9 -15 -5 0 -16 -3 -25 -6 -11 -4 -14 0 -13 15 2 25 47 31 47
6z m-6430 -30 c0 -19 -4 -35 -9 -35 -9 0 -12 49 -4 63 9 15 13 6 13 -28z m122
0 c-29 -25 -42 -24 -42 5 0 13 9 20 28 22 41 6 45 -1 14 -27z m268 31 c0 -2 3
-12 6 -21 5 -13 2 -15 -22 -9 -36 8 -38 10 -29 23 6 10 45 16 45 7z m1380 0
c0 -2 -11 -6 -25 -8 -14 -3 -25 -1 -25 3 0 5 11 9 25 9 14 0 25 -2 25 -4z
m-1556 -35 c3 -5 -12 -11 -35 -13 -43 -4 -64 8 -27 15 41 8 57 7 62 -2z m1636
3 c0 -13 -34 -32 -47 -27 -10 4 -9 9 4 19 19 14 43 18 43 8z m-653 -28 c2 -1
5 -49 8 -107 6 -122 25 -149 25 -35 0 44 4 76 10 76 11 0 13 -16 13 -105 -1
-33 1 -46 4 -30 8 49 43 78 43 35 0 -11 -5 -20 -11 -20 -5 0 -7 -5 -3 -12 12
-19 15 -122 4 -138 -9 -13 -11 -13 -20 0 -5 8 -8 20 -5 27 2 7 0 15 -5 18 -6
4 -10 -2 -11 -12 0 -10 -2 -28 -3 -40 -2 -17 4 -22 36 -27 59 -10 46 -27 -19
-24 -56 3 -57 3 -58 -25 0 -32 -32 -52 -85 -52 -32 0 -35 3 -36 30 0 17 -2 62
-4 100 l-3 70 -7 -55 -7 -55 -1 46 c-1 26 5 66 13 89 10 27 15 80 15 146 l0
103 33 4 c27 3 66 -1 74 -7z m972 10 c-2 -2 -20 -6 -39 -10 -25 -4 -31 -3 -20
4 14 9 69 15 59 6z m-2049 -33 c2 -2 -2 -8 -9 -13 -9 -5 -20 -3 -28 6 -8 8
-25 14 -39 14 -13 0 -24 4 -24 9 0 8 89 -6 100 -16z m2100 18 c0 -19 -12 -41
-20 -36 -10 6 -1 45 11 45 5 0 9 -4 9 -9z m4346 -1 c6 -6 30 -13 54 -16 80
-10 81 -24 2 -23 -54 1 -72 5 -68 14 2 7 -1 18 -7 24 -6 6 -7 11 -1 11 6 0 15
-5 20 -10z m-8991 -30 c3 -5 -1 -10 -9 -10 -8 0 -18 5 -21 10 -3 6 1 10 9 10
8 0 18 -4 21 -10z m8339 -20 c9 0 14 -4 11 -10 -10 -16 -36 -12 -51 8 -20 25
-17 38 4 19 10 -10 26 -17 36 -17z m-8419 10 c3 -6 -1 -7 -9 -4 -18 7 -21 14
-7 14 6 0 13 -4 16 -10z m230 -10 c-27 -10 -57 -18 -65 -18 -8 0 8 8 35 18 28
10 57 18 65 18 8 0 -7 -8 -35 -18z m4213 -2 c-30 -11 -39 -32 -10 -25 9 3 35
8 57 12 35 6 38 5 25 -8 -21 -20 -78 -38 -85 -26 -4 5 -14 5 -26 -2 -12 -6
-23 -8 -26 -5 -3 3 2 8 11 12 9 3 16 17 16 30 0 21 5 24 33 23 l32 -1 -27 -10z
m3889 -30 c-3 -8 -6 -5 -6 6 -1 11 2 17 5 13 3 -3 4 -12 1 -19z m-5103 -40 c6
-4 28 -8 49 -8 20 0 37 -5 37 -11 0 -7 -9 -9 -22 -5 -13 3 -42 6 -65 6 -35 0
-43 4 -43 18 0 10 6 24 13 31 10 10 13 9 16 -6 2 -10 8 -21 15 -25z m-3009
-18 c6 0 3 -4 -4 -9 -9 -6 -22 -6 -34 1 -10 5 -30 7 -43 4 -13 -4 -24 -3 -24
2 0 12 -69 32 -75 22 -3 -4 -15 -6 -27 -2 -20 5 -19 7 12 17 30 10 46 8 110
-11 41 -13 80 -24 85 -24z m1800 30 c3 -6 -1 -7 -9 -4 -18 7 -21 14 -7 14 6 0
13 -4 16 -10z m1815 -12 c0 -16 -3 -19 -11 -11 -6 6 -8 16 -5 22 11 17 16 13
16 -11z m-3770 -28 c-8 -5 -31 -10 -50 -10 -47 0 -21 16 28 18 27 1 33 -1 22
-8z m2290 0 c-20 -13 -40 -13 -40 0 0 6 12 10 28 10 21 0 24 -2 12 -10z m1480
-20 c0 -11 -4 -20 -9 -20 -5 0 -7 9 -4 20 3 11 7 20 9 20 2 0 4 -9 4 -20z
m4480 5 c0 -8 -7 -15 -15 -15 -16 0 -20 12 -8 23 11 12 23 8 23 -8z m-8111
-48 c13 5 14 3 3 -8 -10 -11 -15 -10 -27 4 -8 9 -10 13 -4 8 6 -5 19 -7 28 -4z
m3622 -90 c-13 -13 -15 50 -3 80 5 13 8 5 10 -26 2 -24 -2 -49 -7 -54z m-691
66 c3 -3 -12 -4 -32 -1 -21 2 -38 0 -38 -5 0 -6 38 -7 93 -4 54 3 78 2 57 -3
-30 -6 -31 -8 -10 -10 14 -1 33 -2 43 -1 9 1 17 -3 17 -9 0 -6 -5 -8 -12 -4
-9 5 -8 2 1 -9 8 -10 12 -19 10 -21 -13 -11 -125 -32 -134 -25 -12 12 -52 11
-60 -1 -3 -5 -12 -10 -19 -10 -19 0 -15 108 4 113 18 4 73 -3 80 -10z m-2860
-27 l0 -35 -42 14 c-24 7 -50 15 -58 18 -19 5 45 35 78 36 19 1 22 -4 22 -33z
m4145 -6 c3 -5 2 -10 -4 -10 -5 0 -13 5 -16 10 -3 6 -2 10 4 10 5 0 13 -4 16
-10z m3862 -6 c-3 -3 -12 -4 -19 -1 -8 3 -5 6 6 6 11 1 17 -2 13 -5z m33 -14
c0 -5 -4 -10 -10 -10 -5 0 -10 5 -10 10 0 6 5 10 10 10 6 0 10 -4 10 -10z
m469 1 c9 -6 10 -10 2 -16 -15 -8 -41 1 -41 15 0 12 20 13 39 1z m454 -8 l32
-18 -28 -3 c-16 -2 -37 5 -53 17 -26 20 -26 21 -5 21 12 0 36 -8 54 -17z
m-4903 -3 c0 -5 -2 -10 -4 -10 -3 0 -8 5 -11 10 -3 6 -1 10 4 10 6 0 11 -4 11
-10z m4572 -32 c13 -13 31 -27 42 -33 24 -12 29 -25 17 -44 -8 -12 -15 -9 -39
17 -17 18 -36 33 -44 33 -45 4 -86 9 -108 15 -21 5 -22 7 -9 14 9 5 30 8 48 5
17 -2 31 1 31 6 0 17 40 9 62 -13z m93 12 c3 -5 1 -10 -4 -10 -6 0 -11 5 -11
10 0 6 2 10 4 10 3 0 8 -4 11 -10z m255 -49 c0 -18 -18 -21 -30 -6 -10 13 -9
15 9 15 11 0 21 -4 21 -9z m-328 -38 c22 -21 30 -24 42 -14 13 11 19 8 39 -13
13 -14 29 -26 34 -26 18 0 35 -27 23 -35 -15 -9 -62 3 -56 14 10 16 -19 28
-74 30 -54 3 -97 17 -86 28 3 4 22 6 41 5 21 -1 33 3 30 8 -3 6 -28 10 -56 10
-46 0 -59 7 -42 24 14 14 78 -5 105 -31z m92 16 c-3 -5 -10 -7 -15 -3 -5 3 -7
10 -3 15 3 5 10 7 15 3 5 -3 7 -10 3 -15z m-5124 -6 c-8 -3 -24 -10 -35 -15
-20 -9 -20 -9 -1 6 11 9 27 16 35 15 14 0 14 -1 1 -6z m-150 -27 c0 -14 -4
-28 -10 -31 -6 -4 -10 7 -10 24 0 17 5 31 10 31 6 0 10 -11 10 -24z m-3955 4
c3 -5 1 -10 -4 -10 -6 0 -11 5 -11 10 0 6 2 10 4 10 3 0 8 -4 11 -10z m305
-80 c8 -11 20 -20 27 -20 6 0 16 -7 21 -16 12 -21 32 -10 32 17 0 10 5 19 11
19 7 0 9 -10 4 -27 -6 -27 -6 -27 10 -8 15 18 16 18 11 2 -3 -10 -6 -22 -6
-25 0 -4 -12 -8 -26 -8 -14 -1 -38 -13 -52 -26 -51 -46 -182 -75 -174 -39 2
10 -5 12 -25 8 -20 -4 -35 1 -55 18 -33 28 -35 35 -8 35 12 0 17 5 14 13 -3 9
8 17 31 24 29 9 37 8 44 -4 6 -11 10 -12 15 -4 4 6 1 11 -6 11 -7 0 2 9 19 20
18 11 39 17 47 14 8 -3 17 -1 21 5 10 17 29 13 45 -9z m3059 6 c10 -12 8 -13
-9 -9 -25 7 -37 23 -17 23 8 0 20 -6 26 -14z m5924 -33 c19 -11 3 -23 -32 -23
-22 0 -42 -5 -44 -12 -4 -8 -6 -7 -6 3 -1 9 -8 20 -17 23 -8 3 -12 11 -9 16 6
10 88 5 108 -7z m-5848 -11 c-3 -3 -11 0 -18 7 -9 10 -8 11 6 5 10 -3 15 -9
12 -12z m265 -24 c0 -4 -9 -9 -19 -13 -11 -3 -36 -17 -57 -31 l-37 -25 -43 30
c-23 17 -47 31 -54 31 -6 0 -9 3 -7 8 6 9 217 10 217 0z m5664 6 c8 -3 31 -25
50 -48 l35 -43 -50 -2 c-59 -2 -75 5 -58 25 6 7 15 11 20 8 16 -9 10 3 -8 17
-11 10 -14 10 -9 2 9 -17 3 -16 -39 1 -18 8 -43 12 -54 9 -12 -3 -21 -1 -21 5
0 15 22 20 45 11 28 -11 65 -11 65 0 0 5 -8 12 -17 14 -14 4 -13 5 4 6 12 0
28 -2 37 -5z m-1028 -71 c20 -27 18 -29 -26 -25 -43 4 -61 19 -39 33 22 14 51
10 65 -8z m-190 -11 c-3 -5 -18 -7 -33 -4 l-28 6 30 6 c34 7 40 5 31 -8z
m-7806 -6 c-16 -14 -101 -34 -87 -19 8 8 71 30 92 32 5 1 3 -5 -5 -13z m8188
8 c17 -4 46 -20 64 -36 l33 -31 -70 7 c-38 3 -85 6 -102 6 -22 0 -43 10 -65
30 l-33 29 71 1 c39 0 85 -3 102 -6z m-3038 -7 c0 -2 -10 -12 -21 -23 -22 -19
-22 -19 -8 4 12 19 29 30 29 19z m8 -79 c-2 -7 -10 -34 -17 -60 -7 -27 -17
-48 -22 -48 -13 0 -11 34 3 48 10 10 10 15 -2 22 -13 8 -12 10 3 10 10 0 17 8
17 20 0 11 5 20 11 20 6 0 9 -6 7 -12z m4227 -88 c3 -6 -1 -7 -9 -4 -18 7 -21
14 -7 14 6 0 13 -4 16 -10z m-4800 -30 c3 -5 1 -10 -4 -10 -6 0 -11 5 -11 10
0 6 2 10 4 10 3 0 8 -4 11 -10z"/>
<path d="M4030 2522 c0 -5 20 -9 45 -8 25 0 45 3 45 8 0 4 -20 8 -45 8 -25 0
-45 -4 -45 -8z"/>
<path d="M7368 1380 c2 -16 6 -30 8 -30 2 0 4 14 4 30 0 17 -4 30 -8 30 -5 0
-7 -13 -4 -30z"/>
<path d="M3610 1432 c0 -15 6 -18 30 -14 16 2 35 10 41 18 9 12 4 14 -30 14
-33 0 -41 -4 -41 -18z"/>
<path d="M2455 1260 c-3 -11 -11 -20 -16 -20 -5 0 -9 -11 -9 -25 0 -15 6 -25
14 -25 21 0 36 23 26 40 -5 8 -5 21 1 32 6 12 6 18 0 18 -5 0 -13 -9 -16 -20z"/>
<path d="M2367 1193 c-6 -11 -9 -203 -3 -203 31 0 36 14 36 111 0 80 -3 99
-14 99 -8 0 -17 -3 -19 -7z"/>
<path d="M2283 1173 c-9 -3 -13 -27 -13 -70 0 -55 2 -64 16 -59 9 3 18 6 20 6
2 0 4 29 4 65 0 64 -2 69 -27 58z"/>
<path d="M1332 959 c2 -6 8 -10 13 -10 5 0 11 4 13 10 2 6 -4 11 -13 11 -9 0
-15 -5 -13 -11z"/>
<path d="M1825 961 c-6 -11 9 -23 19 -14 9 9 7 23 -3 23 -6 0 -12 -4 -16 -9z"/>
<path d="M1390 950 c0 -5 13 -7 30 -3 26 5 30 3 30 -16 0 -12 4 -19 10 -16 6
3 10 15 10 26 0 16 -7 19 -40 19 -22 0 -40 -4 -40 -10z"/>
<path d="M1530 949 c-50 -7 -48 -8 25 -14 28 -3 46 -1 40 3 -5 4 -12 10 -15
12 -3 3 -25 3 -50 -1z"/>
<path d="M1065 930 c-3 -5 -1 -10 4 -10 6 0 11 5 11 10 0 6 -2 10 -4 10 -3 0
-8 -4 -11 -10z"/>
<path d="M1615 932 c11 -12 135 -23 135 -12 0 4 -6 7 -12 7 -7 0 -40 4 -73 8
-42 5 -57 4 -50 -3z"/>
<path d="M1790 905 c7 -9 15 -13 17 -11 7 7 -7 26 -19 26 -6 0 -6 -6 2 -15z"/>
<path d="M1280 899 c0 -5 5 -7 10 -4 6 3 10 8 10 11 0 2 -4 4 -10 4 -5 0 -10
-5 -10 -11z"/>
<path d="M1340 900 c0 -5 5 -10 11 -10 5 0 7 5 4 10 -3 6 -8 10 -11 10 -2 0
-4 -4 -4 -10z"/>
<path d="M1390 890 c0 -5 5 -10 10 -10 6 0 10 5 10 10 0 6 -4 10 -10 10 -5 0
-10 -4 -10 -10z"/>
<path d="M1675 860 c3 -5 8 -10 11 -10 2 0 4 5 4 10 0 6 -5 10 -11 10 -5 0 -7
-4 -4 -10z"/>
<path d="M1785 851 c-6 -11 9 -23 19 -14 9 9 7 23 -3 23 -6 0 -12 -4 -16 -9z"/>
<path d="M1814 824 c-4 -14 -2 -30 5 -37 8 -8 11 -1 11 26 0 43 -7 48 -16 11z"/>
<path d="M3505 830 c3 -5 8 -10 11 -10 2 0 4 5 4 10 0 6 -5 10 -11 10 -5 0 -7
-4 -4 -10z"/>
<path d="M4042 450 c0 -19 2 -27 5 -17 2 9 2 25 0 35 -3 9 -5 1 -5 -18z"/>
<path d="M585 600 c-3 -6 1 -7 9 -4 18 7 21 14 7 14 -6 0 -13 -4 -16 -10z"/>
<path d="M8568 203 c7 -3 16 -2 19 1 4 3 -2 6 -13 5 -11 0 -14 -3 -6 -6z"/>
<path d="M2965 3701 c11 -5 47 -11 80 -15 33 -4 69 -10 80 -13 14 -4 17 -2 10
5 -10 11 -122 32 -165 31 -23 0 -23 -1 -5 -8z"/>
<path d="M2355 3690 c-3 -5 1 -10 9 -10 9 0 16 5 16 10 0 6 -4 10 -9 10 -6 0
-13 -4 -16 -10z"/>
<path d="M2327 3664 c3 -7 9 -14 14 -14 14 0 10 17 -5 23 -10 4 -13 1 -9 -9z"/>
<path d="M3160 3640 c0 -5 5 -10 10 -10 6 0 10 5 10 10 0 6 -4 10 -10 10 -5 0
-10 -4 -10 -10z"/>
<path d="M2910 3565 c23 -12 87 -23 177 -28 18 -1 33 -5 33 -9 0 -4 8 -6 18
-6 9 0 41 -3 70 -7 37 -5 52 -4 52 4 0 6 -6 14 -12 16 -17 6 -317 45 -343 45
-18 -1 -17 -2 5 -15z"/>
<path d="M3381 3554 c0 -11 3 -14 6 -6 3 7 2 16 -1 19 -3 4 -6 -2 -5 -13z"/>
<path d="M3402 3515 c0 -16 2 -22 5 -12 2 9 2 23 0 30 -3 6 -5 -1 -5 -18z"/>
<path d="M3372 3510 c0 -14 2 -19 5 -12 2 6 2 18 0 25 -3 6 -5 1 -5 -13z"/>
<path d="M3325 3510 c3 -5 13 -10 21 -10 8 0 12 5 9 10 -3 6 -13 10 -21 10 -8
0 -12 -4 -9 -10z"/>
<path d="M3377 3473 c-4 -3 -7 -13 -7 -22 1 -13 3 -13 11 2 11 19 8 33 -4 20z"/>
<path d="M3400 3455 c0 -8 2 -15 4 -15 2 0 6 7 10 15 3 8 1 15 -4 15 -6 0 -10
-7 -10 -15z"/>
<path d="M10017 3204 c-15 -15 -6 -23 26 -23 17 0 44 -2 60 -4 18 -3 27 0 27
9 0 9 -12 14 -32 14 -18 0 -42 3 -53 6 -11 3 -24 2 -28 -2z"/>
<path d="M8724 3071 c1 -38 4 -72 8 -76 9 -9 22 121 13 134 -15 25 -22 7 -21
-58z"/>
<path d="M8325 3120 c-8 -13 5 -80 16 -80 12 0 11 4 -3 35 -9 21 -9 28 1 34 9
6 10 11 3 15 -6 3 -13 2 -17 -4z"/>
<path d="M10030 3082 c-19 -7 -10 -19 13 -18 12 1 32 -1 45 -6 15 -5 22 -4 22
5 0 8 4 7 10 -3 8 -13 10 -13 10 1 0 13 -11 18 -45 21 -24 2 -49 2 -55 0z"/>
<path d="M7950 3025 c0 -35 4 -45 16 -45 11 0 14 5 10 16 -3 9 -6 29 -6 45 0
16 -4 29 -10 29 -5 0 -10 -20 -10 -45z"/>
<path d="M8522 3050 c0 -14 2 -19 5 -12 2 6 2 18 0 25 -3 6 -5 1 -5 -13z"/>
<path d="M10033 3043 c-20 -8 -15 -23 7 -23 11 0 20 7 20 15 0 15 -6 17 -27 8z"/>
<path d="M10070 3030 c0 -5 7 -10 15 -10 8 0 15 -4 15 -10 0 -5 -7 -10 -15
-10 -21 0 -19 -17 3 -22 22 -6 42 1 42 13 0 6 -4 7 -10 4 -5 -3 -10 1 -10 9 0
9 5 16 10 16 25 0 7 16 -20 18 -16 1 -30 -2 -30 -8z"/>
<path d="M8950 3010 c0 -5 5 -10 11 -10 5 0 7 5 4 10 -3 6 -8 10 -11 10 -2 0
-4 -4 -4 -10z"/>
<path d="M8520 2995 c0 -8 4 -15 10 -15 5 0 7 7 4 15 -4 8 -8 15 -10 15 -2 0
-4 -7 -4 -15z"/>
<path d="M7495 2990 c-3 -5 -16 -10 -28 -10 -13 0 -17 -4 -11 -9 15 -14 74 -1
67 15 -6 16 -19 18 -28 4z"/>
<path d="M8328 2986 c-23 -17 -23 -26 2 -26 11 0 20 -5 20 -12 0 -9 3 -9 12 0
8 8 8 15 0 25 -7 8 -9 17 -5 20 12 12 -12 7 -29 -7z"/>
<path d="M8694 2968 c-11 -18 11 -25 36 -12 27 15 27 15 -8 19 -12 1 -25 -2
-28 -7z"/>
<path d="M4820 2952 c0 -6 59 -12 148 -16 81 -4 175 -8 210 -9 83 -4 79 9 -5
17 -160 13 -353 18 -353 8z"/>
<path d="M7971 2928 c-1 -9 -7 -18 -13 -21 -10 -3 -10 -9 -2 -23 16 -27 34
-29 33 -2 -1 29 -17 71 -18 46z"/>
<path d="M3449 2928 c-7 -18 -6 -88 1 -88 6 0 10 11 10 24 0 13 7 30 16 37 14
11 18 10 30 -6 13 -18 14 -17 14 8 0 24 -4 27 -35 27 -19 0 -35 -1 -36 -2z"/>
<path d="M4823 2885 c0 -27 2 -38 4 -22 2 15 2 37 0 50 -2 12 -4 0 -4 -28z"/>
<path d="M5453 2788 l1 -143 3 133 4 132 53 0 c29 0 107 -3 174 -7 l121 -6 4
-46 3 -46 2 53 c1 35 -2 54 -10 56 -7 3 -90 7 -185 11 l-171 6 1 -143z"/>
<path d="M8340 2920 c0 -6 -8 -10 -17 -8 -10 2 -19 -4 -21 -14 -2 -10 1 -18 7
-18 6 0 11 4 11 9 0 5 9 13 20 16 21 7 28 25 10 25 -5 0 -10 -5 -10 -10z"/>
<path d="M5233 2835 c0 -44 2 -61 4 -37 2 23 2 59 0 80 -2 20 -4 1 -4 -43z"/>
<path d="M6062 2885 c-13 -13 -22 -32 -20 -42 3 -15 15 -18 76 -20 l72 -1 0
42 c0 35 -3 42 -20 42 -13 0 -20 -7 -20 -18 0 -10 -7 -18 -15 -18 -8 0 -15 9
-15 20 0 28 -30 25 -58 -5z"/>
<path d="M3480 2875 c0 -8 5 -15 10 -15 6 0 10 7 10 15 0 8 -4 15 -10 15 -5 0
-10 -7 -10 -15z"/>
<path d="M3655 2870 c3 -5 10 -10 16 -10 5 0 9 5 9 10 0 6 -7 10 -16 10 -8 0
-12 -4 -9 -10z"/>
<path d="M3463 2832 c-31 -5 -29 -23 5 -55 39 -37 52 -34 52 12 0 41 -12 50
-57 43z"/>
<path d="M1868 2823 c6 -2 18 -2 25 0 6 3 1 5 -13 5 -14 0 -19 -2 -12 -5z"/>
<path d="M1928 2823 c7 -3 16 -2 19 1 4 3 -2 6 -13 5 -11 0 -14 -3 -6 -6z"/>
<path d="M4817 2810 c-3 -11 -1 -23 4 -26 5 -3 9 6 9 20 0 31 -6 34 -13 6z"/>
<path d="M2000 2810 c0 -5 5 -10 11 -10 5 0 7 5 4 10 -3 6 -8 10 -11 10 -2 0
-4 -4 -4 -10z"/>
<path d="M1826 2791 c-3 -5 0 -11 8 -14 15 -6 26 1 26 15 0 11 -27 10 -34 -1z"/>
<path d="M5812 2770 c0 -14 2 -19 5 -12 2 6 2 18 0 25 -3 6 -5 1 -5 -13z"/>
<path d="M4813 2670 c-1 -49 3 -90 8 -90 5 0 9 41 9 90 0 50 -4 90 -8 90 -5 0
-9 -40 -9 -90z"/>
<path d="M3800 2739 c0 -5 5 -7 10 -4 6 3 10 8 10 11 0 2 -4 4 -10 4 -5 0 -10
-5 -10 -11z"/>
<path d="M4228 2743 c7 -3 16 -2 19 1 4 3 -2 6 -13 5 -11 0 -14 -3 -6 -6z"/>
<path d="M4476 2741 c-4 -5 3 -7 14 -4 23 6 26 13 6 13 -8 0 -17 -4 -20 -9z"/>
<path d="M3388 2733 c7 -3 16 -2 19 1 4 3 -2 6 -13 5 -11 0 -14 -3 -6 -6z"/>
<path d="M3743 2733 c9 -2 25 -2 35 0 9 3 1 5 -18 5 -19 0 -27 -2 -17 -5z"/>
<path d="M4565 2729 c-4 -6 -4 -13 -1 -16 3 -4 6 -1 6 5 0 7 9 12 21 12 11 0
17 -4 14 -10 -3 -5 1 -10 11 -10 13 0 14 3 4 15 -14 17 -46 20 -55 4z"/>
<path d="M5812 2715 c0 -16 2 -22 5 -12 2 9 2 23 0 30 -3 6 -5 -1 -5 -18z"/>
<path d="M4108 2723 c7 -3 16 -2 19 1 4 3 -2 6 -13 5 -11 0 -14 -3 -6 -6z"/>
<path d="M5812 2655 c0 -16 2 -22 5 -12 2 9 2 23 0 30 -3 6 -5 -1 -5 -18z"/>
<path d="M35 1960 c3 -5 1 -10 -4 -10 -6 0 -11 -9 -11 -21 0 -14 5 -19 18 -17
10 2 16 11 14 22 -2 11 2 23 10 27 9 6 6 9 -10 9 -13 0 -20 -4 -17 -10z"/>
<path d="M218 1842 c-20 -2 -28 -9 -28 -23 0 -10 5 -19 10 -19 6 0 10 7 10 15
0 10 10 15 34 15 19 0 38 4 41 10 6 9 0 10 -67 2z"/>
<path d="M0 1806 c0 -9 7 -16 16 -16 17 0 14 22 -4 28 -7 2 -12 -3 -12 -12z"/>
<path d="M224 1800 c0 -11 4 -20 8 -20 4 0 8 6 8 14 0 8 12 17 28 19 23 3 22
4 -8 6 -30 1 -36 -2 -36 -19z"/>
<path d="M255 1790 c-3 -5 1 -10 9 -10 8 0 18 5 21 10 3 6 -1 10 -9 10 -8 0
-18 -4 -21 -10z"/>
<path d="M185 1780 c4 -6 11 -8 16 -5 14 9 11 15 -7 15 -8 0 -12 -5 -9 -10z"/>
<path d="M215 1700 l-40 -7 53 -2 c33 0 51 3 47 9 -3 6 -9 9 -13 9 -4 -1 -25
-5 -47 -9z"/>
<path d="M185 1670 c-3 -5 -1 -10 4 -10 6 0 11 5 11 10 0 6 -2 10 -4 10 -3 0
-8 -4 -11 -10z"/>
<path d="M220 1670 c0 -5 5 -10 10 -10 6 0 10 5 10 10 0 6 -4 10 -10 10 -5 0
-10 -4 -10 -10z"/>
<path d="M258 1673 c7 -3 16 -2 19 1 4 3 -2 6 -13 5 -11 0 -14 -3 -6 -6z"/>
<path d="M0 1654 c0 -8 5 -12 10 -9 6 3 10 10 10 16 0 5 -4 9 -10 9 -5 0 -10
-7 -10 -16z"/>
<path d="M255 1650 c-3 -5 1 -10 10 -10 9 0 13 5 10 10 -3 6 -8 10 -10 10 -2
0 -7 -4 -10 -10z"/>
<path d="M180 1640 c0 -5 5 -10 10 -10 6 0 10 5 10 10 0 6 -4 10 -10 10 -5 0
-10 -4 -10 -10z"/>
<path d="M215 1640 c4 -6 11 -8 16 -5 14 9 11 15 -7 15 -8 0 -12 -5 -9 -10z"/>
<path d="M179 1558 c-7 -23 -5 -38 5 -38 6 0 12 9 13 20 1 11 -2 20 -8 20 -5
0 -9 -1 -10 -2z"/>
<path d="M213 1540 c-1 -11 2 -20 8 -20 5 0 9 6 9 14 0 8 10 17 23 19 17 3 15
5 -8 6 -24 1 -31 -3 -32 -19z"/>
<path d="M3 1520 c-1 -11 4 -20 12 -20 8 0 13 9 12 20 -1 11 -6 20 -12 20 -6
0 -11 -9 -12 -20z"/>
<path d="M244 1520 c0 -11 6 -20 13 -20 6 0 11 9 10 20 -1 11 -6 20 -12 20 -6
0 -11 -9 -11 -20z"/>
<path d="M175 1500 c-3 -5 1 -10 9 -10 9 0 16 5 16 10 0 6 -4 10 -9 10 -6 0
-13 -4 -16 -10z"/>
<path d="M210 1500 c0 -5 5 -10 10 -10 6 0 10 5 10 10 0 6 -4 10 -10 10 -5 0
-10 -4 -10 -10z"/>
<path d="M0 1480 c0 -5 4 -10 9 -10 6 0 13 5 16 10 3 6 -1 10 -9 10 -9 0 -16
-4 -16 -10z"/>
<path d="M4418 177 l-78 -41 0 -68 0 -68 33 0 c18 0 56 12 85 26 l52 26 0 84
c0 46 -3 83 -7 83 -5 -1 -43 -20 -85 -42z"/>
<path d="M4105 10 c-3 -5 1 -10 9 -10 9 0 16 5 16 10 0 6 -4 10 -9 10 -6 0
-13 -4 -16 -10z"/>
</g>
</svg>
